<svg preserveAspectRatio="none" width="100%" height="100%" overflow="visible" style="display: block;" viewBox="0 0 245 75" fill="none" xmlns="http://www.w3.org/2000/svg">
<g id="Vector">
<path fill-rule="evenodd" clip-rule="evenodd" d="M236.847 0.245811C238.276 0.0301353 243.801 -0.232067 245 0.375526C244.25 0.665019 242.571 0.676351 241.696 0.692942C226.179 1.32843 210.785 3.74753 195.814 7.90357C193.903 8.43446 188.803 9.90775 187.274 10.9111C188.759 11.0071 190.946 10.6454 191.506 12.0161C191.084 14.5194 185.528 17.913 183.07 17.7103C181.613 16.8993 182.777 16.1349 182.192 14.5622L181.748 14.4123C180.388 14.6884 178.3 16.2207 177.061 17.0428C176.872 17.7937 176.678 18.5435 176.48 19.2915C187.899 18.667 198.83 18.1808 210.271 18.8454C214.364 19.083 218.386 19.0248 222.449 19.7695C219.699 20.329 212.508 20.1612 208.945 20.4273C197.392 21.29 185.482 22.4463 174.179 25.0834C173.393 26.7639 166.498 41.0127 162.711 38.9234C159.78 37.3076 165.083 28.8755 166.51 26.6223C147.023 31.4816 127.44 37.5504 109.541 46.8267C106.627 48.3391 100.054 53.8356 97.2603 53.1816L97.1381 52.7992C98.2948 50.9334 110.766 44.1939 113.622 42.2511C121.683 36.7714 129.963 31.8735 137.741 25.8612C132.339 26.9682 113.886 30.5247 110.123 32.6262C107.955 33.838 103.632 38.0049 101.256 39.8395C78.8367 57.1561 31.6547 78.4304 2.72796 74.5329C1.81446 74.4078 0.596367 74.314 0 73.5254L0.101076 72.9171C0.895301 72.037 9.8139 67.8751 11.4866 67.0407C43.6045 51.0249 75.1148 40.5246 109.561 31.1137C111.007 29.6325 116.455 24.4511 116.277 22.4256C113.642 19.5843 84.2773 28.0697 79.2256 28.4874C76.3228 28.9281 73.4869 29.4427 70.5322 29.1662C60.9544 28.147 59.085 22.6079 67.0847 16.8137C75.3384 10.7722 85.2563 5.9368 95.4193 4.42465C97.4051 4.12939 101.457 4.10608 102.653 6.13228C105.194 10.4379 98.5887 15.0327 95.5012 17.0171C89.3002 21.0457 82.2134 23.484 74.8601 24.1188C73.3418 24.2623 70.5871 24.8329 69.6679 23.3859C69.7245 23.1289 69.7418 22.7178 70.146 22.7399C80.2473 23.2664 90.5721 19.7689 98.3105 13.2022C103.662 8.66148 102.431 4.82094 95.3952 5.74567C86.1746 6.95702 77.1086 11.3458 69.4753 16.6107C67.5089 17.9671 60.8847 22.7945 64.7103 25.719C70.6523 29.1566 78.7366 27.0421 85.0305 25.7903C93.2106 24.1635 101.146 22.0741 109.359 20.7632C122.852 18.6095 117.727 24.4956 111.965 30.6016C119.122 28.3631 132.367 25.6776 139.767 24.3542C142.353 22.039 144.859 20.3136 144.073 16.328C143.553 13.6954 139.569 11.5699 140.917 9.17986L141.392 9.0669C143.318 9.9919 144.482 13.505 145.225 15.4127C146.637 13.8243 150.025 9.13467 152.094 10.1892C152.892 11.4379 152.567 12.8358 152.398 14.2871C153.419 13.2741 155.842 10.7406 157.17 10.467C158.599 10.1725 158.017 11.8088 159.084 12.4895C160.662 11.601 162.503 6.57974 165.167 7.90863C165.615 8.13224 165.581 8.22007 165.699 8.67643C165.055 11.4201 160.572 13.1268 160.955 15.2698C162.787 16.7776 166.479 14.7918 168.304 13.8161C169.582 11.2128 173.47 4.98058 176.435 4.58836C179.59 5.65232 177.996 12.585 177.5 15.1816C178.613 14.4663 179.878 13.6283 181.081 13.1125C182.417 12.5396 182.37 13.0683 183.439 11.9989C182.436 12.1578 181.267 12.5946 180.654 11.7132L180.845 11.2755C184.11 9.95745 188.252 8.84065 191.65 7.84667C205.591 3.76924 222.312 0.629798 236.847 0.245811ZM106.402 33.2691C79.9015 40.5449 53.717 49.1623 28.7028 60.6795C25.7193 62.0525 5.10958 71.4921 4.17236 72.656L4.30889 72.9253L5.4109 73.1081C34.4588 74.6421 67.1075 59.9463 91.396 45.01C94.7284 42.9614 104.368 36.3035 106.813 33.4831L106.724 33.2379L106.402 33.2691ZM170.327 21.1182C169.901 20.9937 169.894 20.9443 169.479 21.066C160.881 21.8001 152.236 23.3221 143.754 24.7426C140.744 25.2464 136.896 27.8214 134.638 29.781C132.787 31.3896 117.67 40.9112 117.364 41.5388L118.08 41.3584C134.989 34.0634 149.336 29.9806 167.134 25.6108C167.777 24.7448 170.098 21.8538 170.327 21.1182ZM171.702 25.5957C170.631 25.8113 169.176 26.059 168.151 26.3352C166.598 28.7813 163.066 34.1859 163.357 37.0784C163.736 37.5304 163.516 37.4488 163.965 37.4872C166.972 35.4122 171.179 29.3891 172.311 26.0284L172.227 25.5697L171.702 25.5957ZM174.169 20.4331C172.521 20.6649 169.558 23.5401 169.47 24.9455L169.777 24.9767L173.182 24.2555C173.603 23.3002 174.338 21.8012 174.511 20.8236C174.314 20.4995 174.424 20.5394 174.169 20.4331ZM205.626 19.7621C202.716 19.1584 194.029 19.4695 190.763 19.6188C185.898 19.7835 181.036 20.0123 176.177 20.3054L174.676 23.9956C178.933 23.0511 183.568 22.3739 187.902 21.7372C193.788 20.8981 199.699 20.2394 205.626 19.7621ZM177.035 11.3466C175.082 13.4538 170.767 20.1893 167.84 17.8957C167.538 17.173 167.525 16.8056 167.436 16.0465C166.551 15.8915 161.022 18.7313 160.352 16.8065C159.451 14.2148 158.149 14.1044 156.789 12.3731C155.846 13.3601 153.562 15.9487 152.33 16.2189C150.681 15.5382 151.76 12.5689 150.869 11.5153C148.874 13.3057 147.078 15.5064 145.392 17.594C145.521 20.9231 144.566 21.6758 142.171 23.8681C149.803 22.501 164.052 20.1636 171.849 19.7863L174.117 17.4832C174.849 16.9056 175.645 16.2499 176.395 15.7132C176.56 14.0734 176.72 12.9633 177.035 11.3466ZM172.684 13.7416C171.647 14.2326 169.526 15.0681 169.038 16.0094C169.055 16.7978 168.954 16.4906 169.479 17.16C170.687 16.3526 172.098 15.356 172.843 14.0713L172.684 13.7416ZM187.51 12.1937C185.707 12.6991 183.945 13.4286 183.386 15.5077L183.565 15.8686C184.293 16.0624 184.787 15.8178 185.496 15.5831C186.608 14.9301 188.329 14.0253 189.186 13.135L189.326 12.5919C188.615 12.1184 188.456 12.2584 187.51 12.1937ZM176.283 6.23789C173.882 7.96017 171.652 10.5661 170.035 13.0462L170.003 13.4324L170.275 13.5192C173.806 11.8368 174.59 10.7618 176.734 7.36675C176.746 6.89236 176.816 6.49973 176.283 6.23789Z" fill="var(--fill-0, white)"/>
<path d="M226.14 17.7169C227.268 17.2805 228.534 17.8436 228.971 18.9761C229.408 20.1086 228.851 21.3839 227.729 21.828C226.599 22.274 225.326 21.7121 224.886 20.574C224.447 19.4363 225.01 18.1554 226.14 17.7169Z" fill="var(--fill-0, white)"/>
</g>
</svg>
