<svg preserveAspectRatio="none" width="100%" height="100%" overflow="visible" style="display: block;" viewBox="0 0 1395.01 288" fill="none" xmlns="http://www.w3.org/2000/svg">
<g id="Vector">
<path d="M0 0H349.115V287.861H0V0Z" fill="var(--fill-0, black)"/>
<path d="M64.6201 68.6052C65.6611 68.1677 66.8241 67.8569 67.8988 67.5522C79.9055 64.138 91.9134 57.2673 101.721 47.6251C106.494 42.9316 106.013 44.4961 111.028 42.9361C118.704 40.5463 127.086 33.9336 132.477 26.5017C134.213 24.1074 135.755 21.0674 137.918 19.1604C138.799 19.7548 140.329 22.208 140.846 23.2369C145.32 32.1488 151.694 37.2302 159.383 40.5553C163.251 42.23 166.491 42.3764 170.611 42.5136C164.447 44.4644 157.921 47.2585 152.483 51.3517C144.033 57.7109 140.633 63.7064 139.833 76.1729C139.076 89.2413 138.833 101.724 139.019 115.012C139.228 129.967 136.838 150.575 142.235 164.127C145.176 171.514 150.69 173.577 156.357 175.505C154.79 176.561 153.031 177.182 151.423 178.142C138.6 185.8 137.607 200.824 137.615 217.017C146.751 213.984 156.599 208.244 162.2 197.855C162.877 196.601 163.544 195.364 164.235 194.124C162.46 216.501 137.456 231.101 122.295 234.371C98.8366 239.432 73.0544 233.428 53.2888 215.608C31.2556 195.742 16.6664 157.699 21.6434 122.709C23.422 111.208 30.4445 93.0538 35.8085 83.4946C53.608 51.7741 81.8798 29.9627 111.578 23.3365L115.408 23.2369C115.09 23.7438 112.508 24.3566 111.879 24.5253C95.8549 29.2913 79.9334 41.4953 68.7148 57.2115C52.7317 79.0938 49.3694 107.209 50.248 136.203C50.8573 156.318 54.229 177.523 66.2484 191.839C80.1644 177.229 79.0107 171.965 79.0026 150.101L78.8761 72.733C74.8069 67.5431 70.2236 69.4426 64.988 68.6626L64.6201 68.6052ZM67.6586 194.104C75.3443 207.172 91.1671 215.274 103.313 218.492C114.619 220.534 124.149 221.131 135.421 217.649C135.613 206.417 136.415 193 129.914 184.3C125.807 178.809 122.21 178.24 117.31 175.678C127.557 173.269 133.079 166.833 134.446 152.74C135.496 141.915 135.034 129.96 135.032 118.97L135.018 98.0959C135.002 85.6053 135.619 69.2902 128.321 59.9151C122.184 52.0321 114.199 48.0823 106.003 45.35C105.353 51.5885 105.559 59.4247 105.561 65.8684L105.511 136.325C105.512 142.232 105.507 148.158 105.412 154.064C105.385 155.689 105.925 157.946 106.721 159.194C108.168 161.424 109.831 161.635 111.836 162.026C113.84 162.415 116.314 161.493 117.549 163.278L117.462 163.571C115.587 164.503 113.327 164.823 111.37 165.508C96.7695 170.616 84.1964 181.826 71.1765 191.372C70.0019 192.233 68.7821 193.135 67.6586 194.104Z" fill="#FEFEFE"/>
<path d="M192.068 61.2805C193.316 61.7663 196.392 67.4059 197.85 68.9357C200.476 71.6906 202.542 73.6383 205.55 75.6947C210.279 78.8841 215.363 81.0959 220.617 82.2531C222.141 82.594 224.851 82.7298 225.956 83.1583L226.028 83.4917C225.171 84.0605 222.728 84.3366 221.577 84.6579C220.105 85.0864 218.665 85.6839 217.273 86.4442C212.968 88.8325 210.874 92.3448 212.627 98.3223C219.4 121.427 225.581 145.816 233.41 168.304C235.654 163.593 238.036 155.02 239.61 149.67C242.434 140.052 245.205 130.406 247.923 120.737C249.58 114.898 254.418 99.5096 254.89 94.3997C254.706 94.1145 254.515 93.8369 254.317 93.5684C250.36 88.2502 245.279 88.2788 240.079 88.1596C243.66 85.7291 246.021 86.1199 249.707 84.6715C261.362 80.0956 267.478 74.9962 275.317 63.5345C277.722 66.2276 279.803 69.3747 282.257 72.024C289.108 79.4182 297.693 83.798 306.43 85.6386C308.012 85.972 309.541 86.3567 311.088 86.8833C304.709 88.8114 295.661 93.4597 294.115 102.977C292.614 112.222 292.889 123.112 292.886 132.596L292.872 187.165C292.872 192.484 292.809 200.095 293.319 205.391C293.601 208.333 294.368 211.16 295.569 213.68C300.849 224.556 311.618 221.104 312.563 223.115C310.56 224.281 307.9 224.432 305.88 225.444C297.013 229.894 286.674 236.011 282.238 247.633C280.757 251.512 280.179 256.386 279.421 260.582C277.522 255.95 276.35 250.214 274.169 245.587C269.627 235.953 260.634 229.353 252.571 225.945C250.226 224.954 246.488 224.005 243.984 223.175C249.175 221.95 252.776 222.76 257.729 219.055C264.129 214.268 264.267 206.303 264.739 197.782C265.034 192.452 265.031 187.337 265.035 182.089L265.045 160.434C265.043 141.864 265.417 122.462 263.991 103.989C263.714 100.413 262.922 97.7837 261.565 94.6984C258.206 104.215 254.65 117.982 252.124 127.813L245.604 152.593C242.304 165.926 238.365 184.319 237.702 198.381C237.556 201.488 238.123 206.052 239.087 208.96C241.233 215.434 244.159 216.875 248.716 219.227C246.837 220.591 244.465 221.562 242.576 222.733C236.132 226.73 230.271 233.682 228.344 242.87C228.067 244.193 227.848 247.04 227.3 248.004L226.968 247.959C225.173 243.215 225.876 240.536 222.843 235.476C216.384 224.701 210.502 222.892 200.906 221.048C203.055 219.419 205.49 218.535 207.665 216.792C213.111 212.432 212.267 205.078 210.884 198.199C209.189 189.777 206.917 181.586 204.631 173.397L194.645 138.572C191.988 129.009 189.209 119.506 186.312 110.063C185.569 107.666 182.149 95.7937 180.352 95.3743C180.308 95.4527 180.255 95.5221 180.218 95.6066C179.573 97.0852 179.787 183.88 180.003 192.988C180.093 196.815 180.252 200.598 180.841 204.362C182.028 211.961 185.772 219.592 191.909 221.531C193.564 222.053 196.145 222.039 197.552 223.261C197.268 223.85 197.411 223.589 196.813 223.936C188.435 228.804 180.452 234.617 177.785 246.88C177.421 248.555 177.317 251.679 176.561 252.696C175.357 252.597 174.551 250.414 173.845 249.157C172.682 247.057 171.24 245.243 169.587 243.801C161.888 236.954 147.866 235.969 142.226 247.2C140.889 249.836 140.444 253.07 140.998 256.145C142.171 262.415 146.542 265.282 150.365 268.453C140.815 264.355 131.533 253.399 136.641 239.177C139.629 230.853 145.392 227.428 151.294 223.325C155.006 220.78 158.979 219.114 162.988 217.513C176.253 212.213 174.538 189.429 174.51 174.77L174.556 116.395C174.542 109.663 174.987 99.7872 173.676 93.4522C172.635 88.4146 166.035 85.8619 162.548 85.2116C161.165 84.9536 158.875 84.8194 157.53 84.0846C157.887 83.0527 163.806 82.3934 165.154 81.9724C173.621 79.3201 182.01 75.1516 188.332 67.0815C189.514 65.5713 190.837 63.0698 192.068 61.2805Z" fill="#FEFEFE"/>
<path d="M289.394 21.4276C290.008 22.0295 294.791 35.5144 295.607 37.5677C297.588 32.254 299.63 26.9102 301.413 21.4849L307.496 21.4366L307.447 44.3388L303.38 44.3071C303.385 42.1663 303.611 29.0827 303.076 28.2364C301.116 32.9013 299.333 37.6869 297.733 42.5781L293.469 42.5766C291.893 37.8227 289.565 32.0323 287.79 27.2889L287.783 44.3267L283.652 44.2966L283.654 21.4351L289.394 21.4276Z" fill="#FEFEFE"/>
<path d="M261.348 21.4503L280.138 21.4518C280.116 22.6708 280.049 23.9789 280.005 25.2054L272.746 25.2009C272.664 28.0358 272.689 31.0124 272.68 33.8609L272.675 44.3283L268.682 44.2981L268.662 25.2085L261.356 25.1994L261.348 21.4503Z" fill="#FEFEFE"/>
<path d="M696.982 0.138714H1046.1V288H696.982V0.138714Z" fill="var(--fill-0, black)"/>
<path d="M761.603 68.7438C762.645 68.3063 763.807 67.9955 764.882 67.6907C776.889 64.2765 788.897 57.4058 798.704 47.7637C803.478 43.0701 802.996 44.6346 808.011 43.0746C815.688 40.6848 824.07 34.0722 829.461 26.6403C831.196 24.246 832.738 21.2059 834.902 19.2989C835.783 19.8934 837.312 22.3465 837.829 23.3754C842.303 32.2874 848.677 37.3687 856.366 40.6939C860.235 42.3686 863.474 42.5149 867.594 42.6522C861.43 44.603 854.904 47.3971 849.466 51.4902C841.016 57.8494 837.617 63.845 836.817 76.3114C836.059 89.3799 835.816 101.863 836.002 115.15C836.211 130.106 833.821 150.713 839.218 164.266C842.159 171.653 847.673 173.715 853.341 175.643C851.774 176.699 850.014 177.321 848.407 178.28C835.583 185.939 834.591 200.962 834.599 217.155C843.734 214.123 853.582 208.382 859.183 197.993C859.86 196.739 860.527 195.502 861.218 194.262C859.443 216.639 834.44 231.239 819.279 234.51C795.82 239.57 770.038 233.567 750.272 215.746C728.239 195.881 713.65 157.837 718.627 122.848C720.405 111.347 727.428 93.1924 732.792 83.6332C750.591 51.9126 778.863 30.1013 808.561 23.475L812.392 23.3754C812.074 23.8824 809.492 24.4951 808.862 24.6639C792.838 29.4299 776.917 41.6338 765.698 57.35C749.715 79.2323 746.353 107.347 747.231 136.341C747.841 156.457 751.212 177.662 763.232 191.978C777.148 177.368 775.994 172.104 775.986 150.24L775.859 72.8716C771.79 67.6816 767.207 69.5811 761.971 68.8011L761.603 68.7438ZM764.642 194.243C772.328 207.311 788.15 215.413 800.296 218.631C811.602 220.672 821.132 221.269 832.404 217.787C832.597 206.555 833.399 193.138 826.897 184.439C822.791 178.947 819.194 178.378 814.294 175.817C824.541 173.407 830.062 166.971 831.429 152.878C832.48 142.053 832.018 130.098 832.015 119.109L832.001 98.2345C831.985 85.7439 832.603 69.4287 825.305 60.0536C819.167 52.1706 811.182 48.2208 802.987 45.4886C802.337 51.7271 802.542 59.5633 802.545 66.007L802.495 136.464C802.496 142.37 802.49 148.296 802.395 154.203C802.368 155.828 802.908 158.085 803.704 159.333C805.151 161.562 806.815 161.774 808.819 162.164C810.823 162.554 813.298 161.632 814.533 163.417L814.446 163.709C812.57 164.642 810.31 164.962 808.354 165.647C793.753 170.755 781.18 181.965 768.16 191.51C766.985 192.372 765.765 193.274 764.642 194.243Z" fill="var(--fill-0, black)"/>
<path d="M889.047 61.4191C890.295 61.9049 893.371 67.5444 894.829 69.0742C897.455 71.8291 899.521 73.7769 902.529 75.8333C907.258 79.0227 912.342 81.2344 917.596 82.3916C919.12 82.7326 921.83 82.8684 922.935 83.2968L923.007 83.6303C922.15 84.199 919.707 84.4751 918.556 84.7965C917.084 85.2249 915.644 85.8224 914.252 86.5828C909.947 88.9711 907.853 92.4833 909.606 98.4608C916.379 121.565 922.56 145.955 930.389 168.442C932.633 163.732 935.015 155.158 936.59 149.808C939.413 140.19 942.184 130.545 944.902 120.876C946.559 115.037 951.397 99.6482 951.869 94.5382C951.685 94.2531 951.494 93.9755 951.296 93.7069C947.339 88.3887 942.258 88.4174 937.058 88.2982C940.639 85.8677 943 86.2584 946.686 84.8101C958.341 80.2342 964.457 75.1347 972.296 63.6731C974.701 66.3661 976.782 69.5133 979.236 72.1626C986.087 79.5567 994.672 83.9365 1003.41 85.7771C1004.99 86.1106 1006.52 86.4953 1008.07 87.0218C1001.69 88.9499 992.64 93.5983 991.094 103.115C989.593 112.361 989.868 123.25 989.865 132.734L989.851 187.304C989.851 192.622 989.788 200.234 990.298 205.529C990.58 208.471 991.347 211.299 992.548 213.818C997.828 224.694 1008.6 221.242 1009.54 223.254C1007.54 224.42 1004.88 224.571 1002.86 225.583C993.992 230.032 983.653 236.15 979.217 247.771C977.736 251.65 977.158 256.525 976.4 260.721C974.501 256.089 973.329 250.353 971.148 245.726C966.606 236.091 957.613 229.492 949.55 226.084C947.205 225.093 943.467 224.144 940.963 223.314C946.154 222.089 949.755 222.899 954.708 219.194C961.108 214.406 961.246 206.442 961.718 197.921C962.013 192.591 962.01 187.476 962.014 182.227L962.024 160.573C962.022 142.002 962.396 122.6 960.97 104.128C960.694 100.552 959.901 97.9222 958.544 94.8369C955.185 104.354 951.629 118.121 949.103 127.952L942.583 152.732C939.283 166.064 935.344 184.457 934.681 198.52C934.535 201.626 935.102 206.19 936.066 209.099C938.212 215.573 941.138 217.013 945.695 219.366C943.816 220.729 941.444 221.701 939.555 222.872C933.111 226.868 927.25 233.821 925.323 243.009C925.046 244.332 924.827 247.179 924.279 248.143L923.947 248.097C922.153 243.354 922.855 240.675 919.822 235.614C913.363 224.839 907.481 223.03 897.885 221.187C900.034 219.557 902.469 218.673 904.644 216.931C910.09 212.57 909.246 205.217 907.863 198.337C906.168 189.916 903.896 181.725 901.61 173.536L891.625 138.71C888.967 129.148 886.188 119.645 883.291 110.202C882.548 107.804 879.128 95.9322 877.331 95.5128C877.287 95.5913 877.234 95.6607 877.197 95.7452C876.553 97.2237 876.766 184.018 876.982 193.126C877.072 196.954 877.231 200.736 877.82 204.5C879.007 212.1 882.751 219.731 888.888 221.669C890.543 222.191 893.124 222.178 894.531 223.4C894.247 223.988 894.39 223.727 893.793 224.074C885.414 228.943 877.431 234.756 874.764 247.019C874.4 248.693 874.296 251.818 873.54 252.835C872.336 252.735 871.531 250.552 870.824 249.295C869.661 247.195 868.219 245.382 866.566 243.939C858.867 237.093 844.845 236.108 839.205 247.339C837.868 249.974 837.423 253.209 837.977 256.284C839.15 262.554 843.521 265.42 847.344 268.592C837.794 264.494 828.512 253.538 833.62 239.315C836.608 230.992 842.371 227.567 848.273 223.463C851.985 220.918 855.958 219.252 859.967 217.652C873.232 212.352 871.517 189.567 871.489 174.909L871.535 116.534C871.521 109.802 871.966 99.9258 870.655 93.5907C869.614 88.5532 863.014 86.0004 859.527 85.3502C858.144 85.0922 855.854 84.9579 854.509 84.2232C854.866 83.1912 860.785 82.5319 862.133 82.111C870.6 79.4587 878.989 75.2901 885.311 67.22C886.493 65.7098 887.816 63.2084 889.047 61.4191Z" fill="var(--fill-0, black)"/>
<path d="M986.373 21.5661C986.987 22.1681 991.77 35.6529 992.586 37.7063C994.567 32.3926 996.609 27.0488 998.392 21.6235L1004.48 21.5752L1004.43 44.4773L1000.36 44.4457C1000.36 42.3048 1000.59 29.2213 1000.06 28.3749C998.095 33.0398 996.312 37.8255 994.712 42.7167L990.448 42.7152C988.872 37.9612 986.545 32.1708 984.769 27.4274L984.762 44.4653L980.631 44.4351L980.633 21.5737L986.373 21.5661Z" fill="var(--fill-0, black)"/>
<path d="M958.327 21.5888L977.117 21.5903C977.095 22.8094 977.028 24.1174 976.984 25.344L969.725 25.3395C969.643 28.1743 969.668 31.151 969.659 33.9994L969.654 44.4668L965.661 44.4367L965.641 25.347L958.335 25.3379L958.327 21.5888Z" fill="var(--fill-0, black)"/>
<path d="M347.802 0.138714H696.707V287.861H347.802V0.138714Z" fill="white"/>
<path d="M416.305 84.9972C417.346 84.5599 418.508 84.2492 419.582 83.9446C431.581 80.5321 443.582 73.6647 453.383 64.0272C458.154 59.3359 457.673 60.8997 462.685 59.3404C470.357 56.9518 478.734 50.3423 484.122 42.914C485.856 40.5209 487.397 37.4823 489.56 35.5762C490.44 36.1704 491.969 38.6223 492.485 39.6508C496.956 48.5584 503.327 53.6373 511.011 56.9609C514.877 58.6347 518.115 58.781 522.232 58.9182C516.072 60.868 509.55 63.6608 504.116 67.7519C495.67 74.1081 492.273 80.1008 491.473 92.5612C490.716 105.623 490.474 118.1 490.659 131.381C490.868 146.33 488.48 166.927 493.873 180.473C496.812 187.856 502.323 189.918 507.987 191.845C506.421 192.901 504.663 193.522 503.056 194.481C490.24 202.135 489.249 217.152 489.257 233.337C498.386 230.306 508.228 224.568 513.826 214.184C514.503 212.931 515.17 211.695 515.86 210.455C514.086 232.821 489.098 247.414 473.946 250.683C450.501 255.741 424.734 249.741 404.981 231.929C382.961 212.073 368.38 174.048 373.354 139.075C375.132 127.579 382.15 109.434 387.511 99.8794C405.3 68.1742 433.555 46.3733 463.235 39.7503L467.063 39.6508C466.745 40.1574 464.165 40.7699 463.535 40.9386C447.521 45.7023 431.609 57.9003 420.398 73.6089C404.424 95.4807 401.064 123.582 401.942 152.562C402.551 172.668 405.92 193.863 417.933 208.172C431.84 193.569 430.687 188.307 430.679 166.454L430.553 89.123C426.486 83.9356 421.905 85.8341 416.673 85.0545L416.305 84.9972ZM419.342 210.435C427.023 223.497 442.836 231.595 454.975 234.812C466.274 236.852 475.798 237.449 487.063 233.969C487.256 222.742 488.057 209.332 481.559 200.637C477.456 195.147 473.861 194.579 468.964 192.018C479.205 189.61 484.722 183.177 486.089 169.091C487.139 158.271 486.677 146.322 486.675 135.338L486.661 114.474C486.644 101.989 487.262 85.6818 479.968 76.3112C473.834 68.432 465.854 64.4842 457.664 61.7532C457.014 67.9887 457.22 75.8211 457.222 82.2617L457.172 152.684C457.173 158.588 457.167 164.511 457.072 170.415C457.046 172.039 457.585 174.295 458.381 175.542C459.827 177.771 461.489 177.982 463.492 178.373C465.495 178.762 467.969 177.84 469.203 179.624L469.116 179.917C467.241 180.849 464.983 181.169 463.027 181.853C448.435 186.959 435.87 198.163 422.858 207.704C421.684 208.565 420.465 209.467 419.342 210.435Z" fill="var(--fill-0, black)"/>
<path d="M543.674 77.6759C544.922 78.1615 547.995 83.7983 549.452 85.3274C552.077 88.081 554.143 90.0278 557.148 92.0831C561.875 95.271 566.954 97.4817 572.206 98.6383C573.729 98.9791 576.437 99.1148 577.541 99.5431L577.613 99.8764C576.757 100.445 574.315 100.721 573.165 101.042C571.695 101.47 570.255 102.067 568.863 102.827C564.562 105.215 562.469 108.725 564.221 114.7C570.991 137.793 577.167 162.171 584.992 184.647C587.234 179.939 589.614 171.37 591.188 166.022C594.01 156.409 596.779 146.768 599.496 137.104C601.151 131.268 605.987 115.887 606.459 110.779C606.275 110.494 606.083 110.217 605.886 109.948C601.931 104.633 596.853 104.661 591.657 104.542C595.235 102.113 597.594 102.503 601.278 101.056C612.926 96.4819 619.04 91.3849 626.873 79.9288C629.276 82.6206 631.357 85.7662 633.809 88.4142C640.656 95.8048 649.235 100.182 657.968 102.022C659.548 102.355 661.076 102.74 662.623 103.266C656.248 105.193 647.204 109.84 645.66 119.352C644.16 128.593 644.434 139.477 644.431 148.957L644.418 203.5C644.418 208.816 644.354 216.423 644.864 221.716C645.146 224.657 645.912 227.483 647.113 230.001C652.389 240.872 663.152 237.422 664.096 239.432C662.095 240.598 659.435 240.749 657.418 241.761C648.556 246.208 638.223 252.322 633.791 263.938C632.31 267.815 631.732 272.688 630.974 276.881C629.077 272.252 627.906 266.519 625.725 261.894C621.185 252.264 612.199 245.668 604.141 242.261C601.797 241.27 598.062 240.322 595.559 239.493C600.747 238.268 604.345 239.078 609.296 235.374C615.691 230.589 615.83 222.629 616.302 214.112C616.596 208.784 616.593 203.672 616.597 198.426L616.606 176.782C616.606 158.22 616.979 138.827 615.554 120.364C615.278 116.79 614.485 114.161 613.129 111.078C609.773 120.59 606.219 134.35 603.695 144.176L597.178 168.945C593.881 182.271 589.944 200.655 589.28 214.71C589.136 217.815 589.701 222.377 590.665 225.284C592.81 231.755 595.734 233.195 600.287 235.546C598.41 236.909 596.04 237.881 594.152 239.051C587.712 243.045 581.854 249.994 579.929 259.178C579.652 260.5 579.431 263.346 578.884 264.309L578.552 264.264C576.76 259.523 577.461 256.845 574.43 251.787C567.975 241.017 562.096 239.209 552.507 237.366C554.655 235.738 557.089 234.854 559.262 233.112C564.705 228.754 563.862 221.404 562.479 214.528C560.784 206.11 558.514 197.924 556.229 189.738L546.249 154.93C543.594 145.372 540.817 135.873 537.922 126.435C537.18 124.039 533.762 112.172 531.966 111.753C531.921 111.832 531.868 111.901 531.83 111.985C531.186 113.463 531.4 200.216 531.616 209.319C531.707 213.145 531.866 216.926 532.454 220.688C533.641 228.284 537.382 235.911 543.514 237.849C545.168 238.371 547.748 238.357 549.155 239.578C548.871 240.167 549.015 239.906 548.416 240.253C540.043 245.119 532.065 250.929 529.4 263.186C529.035 264.86 528.932 267.983 528.175 268.999C526.974 268.9 526.168 266.718 525.461 265.461C524.299 263.362 522.859 261.55 521.207 260.108C513.512 253.265 499.499 252.28 493.862 263.506C492.526 266.14 492.081 269.373 492.635 272.446C493.807 278.714 498.176 281.579 501.996 284.748C492.452 280.653 483.175 269.702 488.28 255.486C491.267 247.167 497.026 243.744 502.924 239.642C506.635 237.098 510.605 235.433 514.612 233.833C527.869 228.536 526.155 205.762 526.126 191.111L526.173 132.764C526.159 126.035 526.603 116.164 525.294 109.832C524.254 104.797 517.656 102.245 514.172 101.595C512.789 101.338 510.501 101.203 509.157 100.469C509.514 99.4375 515.429 98.7786 516.776 98.3578C525.238 95.7068 533.621 91.5403 539.941 83.4741C541.121 81.9646 542.444 79.4644 543.674 77.6759Z" fill="var(--fill-0, black)"/>
<path d="M640.941 37.8429C641.554 38.4446 646.334 51.9229 647.15 53.9752C649.129 48.6641 651.171 43.3229 652.953 37.9002L659.033 37.852L658.983 60.743L654.919 60.7114C654.924 58.5715 655.15 45.4944 654.615 44.6484C652.656 49.3111 650.874 54.0943 649.276 58.9832L645.013 58.9817C643.438 54.2301 641.112 48.4425 639.338 43.7014L639.33 60.731L635.203 60.7008L635.205 37.8504L640.941 37.8429Z" fill="var(--fill-0, black)"/>
<path d="M612.914 37.8653L631.693 37.8668C631.671 39.0852 631.603 40.3926 631.559 41.6186L624.305 41.6141C624.222 44.4476 624.248 47.4228 624.239 50.2699L624.234 60.7323L620.243 60.7021L620.223 41.6216L612.921 41.6126L612.914 37.8653Z" fill="var(--fill-0, black)"/>
<path d="M905.286 82.5609C905.732 82.3736 906.23 82.2405 906.69 82.11C911.83 80.6484 916.97 77.707 921.169 73.5792C923.213 71.5698 923.006 72.2396 925.153 71.5718C928.44 70.5487 932.028 67.7178 934.336 64.5361C935.079 63.5111 935.739 62.2097 936.665 61.3933C937.043 61.6477 937.697 62.6979 937.918 63.1384C939.834 66.9537 942.563 69.129 945.855 70.5526C947.511 71.2695 948.897 71.3321 950.661 71.3909C948.022 72.2261 945.229 73.4222 942.901 75.1745C939.283 77.8969 937.828 80.4637 937.485 85.8006C937.161 91.3953 937.057 96.7394 937.137 102.428C937.226 108.83 936.203 117.652 938.513 123.454C939.772 126.617 942.133 127.5 944.559 128.325C943.888 128.777 943.135 129.043 942.447 129.454C936.957 132.733 936.532 139.164 936.536 146.097C940.447 144.798 944.663 142.341 947.061 137.893C947.35 137.357 947.636 136.827 947.931 136.296C947.172 145.876 936.468 152.126 929.977 153.526C919.934 155.693 908.897 153.123 900.435 145.493C891.002 136.989 884.757 120.702 886.887 105.723C887.649 100.799 890.655 93.0275 892.952 88.9351C900.572 75.3554 912.675 66.0178 925.389 63.1811L927.029 63.1384C926.893 63.3555 925.787 63.6178 925.518 63.69C918.658 65.7304 911.842 70.955 907.039 77.6831C900.197 87.0511 898.757 99.0872 899.133 111.5C899.394 120.111 900.838 129.189 905.983 135.318C911.941 129.063 911.447 126.81 911.443 117.45L911.389 84.328C909.647 82.1062 907.685 82.9193 905.444 82.5854L905.286 82.5609ZM906.587 136.288C909.877 141.882 916.651 145.351 921.851 146.728C926.691 147.602 930.771 147.858 935.596 146.367C935.679 141.559 936.022 135.815 933.239 132.091C931.481 129.74 929.941 129.496 927.843 128.399C932.23 127.368 934.593 124.613 935.179 118.579C935.629 113.945 935.431 108.827 935.43 104.122L935.424 95.186C935.417 89.8387 935.681 82.8541 932.557 78.8406C929.929 75.4658 926.511 73.7749 923.002 72.6052C922.724 75.2759 922.812 78.6307 922.813 81.3892L922.792 111.552C922.792 114.081 922.79 116.618 922.749 119.146C922.738 119.842 922.969 120.808 923.31 121.342C923.929 122.297 924.641 122.387 925.499 122.555C926.357 122.721 927.417 122.327 927.945 123.091L927.908 123.216C927.105 123.615 926.138 123.752 925.3 124.045C919.049 126.232 913.667 131.031 908.093 135.118C907.59 135.487 907.068 135.873 906.587 136.288Z" fill="white"/>
<path d="M959.842 79.4238C960.377 79.6317 961.693 82.046 962.317 82.701C963.441 83.8804 964.326 84.7142 965.613 85.5945C967.638 86.9599 969.814 87.9068 972.064 88.4022C972.716 88.5482 973.876 88.6063 974.349 88.7897L974.38 88.9325C974.013 89.176 972.967 89.2942 972.475 89.4318C971.845 89.6152 971.228 89.871 970.632 90.1965C968.789 91.2189 967.893 92.7225 968.643 95.2815C971.543 105.173 974.189 115.614 977.541 125.241C978.501 123.224 979.521 119.554 980.195 117.264C981.404 113.146 982.59 109.017 983.754 104.877C984.463 102.378 986.534 95.7899 986.736 93.6022C986.658 93.4802 986.576 93.3613 986.491 93.2464C984.797 90.9696 982.622 90.9819 980.396 90.9309C981.929 89.8903 982.939 90.0576 984.517 89.4376C989.507 87.4786 992.126 85.2955 995.481 80.3887C996.511 81.5416 997.402 82.8889 998.452 84.0231C1001.39 87.1886 1005.06 89.0636 1008.8 89.8516C1009.48 89.9943 1010.13 90.159 1010.8 90.3844C1008.06 91.2099 1004.19 93.1999 1003.53 97.2741C1002.89 101.232 1003 105.894 1003 109.954L1003 133.316C1003 135.593 1002.97 138.851 1003.19 141.118C1003.31 142.378 1003.64 143.588 1004.15 144.667C1006.41 149.323 1011.02 147.845 1011.43 148.706C1010.57 149.205 1009.43 149.27 1008.57 149.703C1004.77 151.608 1000.34 154.227 998.445 159.202C997.81 160.863 997.563 162.95 997.238 164.746C996.425 162.763 995.924 160.307 994.99 158.326C993.045 154.202 989.195 151.377 985.744 149.918C984.739 149.493 983.14 149.087 982.067 148.732C984.29 148.207 985.831 148.554 987.952 146.968C990.691 144.918 990.751 141.509 990.953 137.861C991.079 135.579 991.077 133.389 991.079 131.142L991.083 121.872C991.083 113.922 991.243 105.616 990.633 97.7075C990.514 96.1767 990.175 95.051 989.594 93.7301C988.156 97.8044 986.634 103.698 985.553 107.907L982.761 118.515C981.349 124.223 979.662 132.097 979.378 138.117C979.316 139.447 979.558 141.401 979.971 142.646C980.89 145.418 982.142 146.035 984.093 147.042C983.289 147.625 982.273 148.041 981.465 148.543C978.706 150.254 976.197 153.23 975.372 157.163C975.253 157.73 975.159 158.948 974.925 159.361L974.782 159.342C974.014 157.311 974.315 156.164 973.017 153.998C970.252 149.385 967.733 148.61 963.625 147.821C964.546 147.124 965.588 146.745 966.519 145.999C968.851 144.132 968.49 140.984 967.897 138.039C967.171 134.434 966.199 130.927 965.22 127.421L960.945 112.512C959.808 108.419 958.618 104.35 957.378 100.308C957.06 99.2815 955.596 94.199 954.826 94.0195C954.807 94.0531 954.784 94.0828 954.768 94.1189C954.493 94.7519 954.584 131.909 954.677 135.808C954.715 137.447 954.784 139.066 955.036 140.678C955.544 143.931 957.147 147.198 959.773 148.028C960.482 148.251 961.587 148.245 962.19 148.769C962.068 149.021 962.13 148.909 961.873 149.057C958.287 151.142 954.869 153.63 953.727 158.88C953.571 159.597 953.527 160.935 953.203 161.37C952.688 161.327 952.343 160.393 952.04 159.855C951.542 158.956 950.925 158.179 950.218 157.562C946.922 154.631 940.919 154.209 938.504 159.017C937.932 160.145 937.741 161.53 937.978 162.846C938.481 165.531 940.352 166.758 941.989 168.115C937.9 166.361 933.926 161.671 936.113 155.582C937.393 152.019 939.86 150.553 942.386 148.796C943.976 147.706 945.676 146.993 947.393 146.308C953.072 144.039 952.337 134.285 952.325 128.009L952.345 103.019C952.339 100.137 952.529 95.9087 951.968 93.1966C951.523 91.04 948.697 89.9472 947.204 89.6688C946.612 89.5583 945.632 89.5009 945.056 89.1863C945.209 88.7445 947.743 88.4623 948.32 88.2821C951.945 87.1466 955.536 85.362 958.243 81.9072C958.748 81.2607 959.315 80.1898 959.842 79.4238Z" fill="white"/>
<path d="M1001.5 62.3339C1001.76 62.5905 1003.79 68.3386 1004.13 69.2139C1004.98 66.9489 1005.84 64.671 1006.6 62.3584L1009.18 62.3378L1009.16 72.1002L1007.43 72.0867C1007.44 71.1741 1007.53 65.5971 1007.3 65.2363C1006.47 67.2248 1005.72 69.2647 1005.04 71.3497L1003.23 71.349C1002.56 69.3226 1001.57 66.8543 1000.82 64.8324L1000.81 72.095L999.061 72.0822L999.062 62.3371L1001.5 62.3339Z" fill="white"/>
<path d="M989.53 62.3339L997.532 62.3346C997.522 62.8549 997.493 63.4133 997.474 63.9369L994.384 63.935C994.348 65.1452 994.359 66.4159 994.355 67.6318L994.353 72.1002L992.653 72.0873L992.645 63.9382L989.533 63.9344L989.53 62.3339Z" fill="white"/>
<path d="M940.233 186.118C940.32 186.22 940.43 186.423 940.506 186.54C942.637 189.779 944.229 191.014 947.969 191.868C945.344 192.765 943.837 193.319 943.772 196.476C943.742 197.87 943.744 199.295 943.746 200.694L943.733 217.425C943.732 219.273 943.66 221.15 943.835 222.988C944.145 226.242 946.196 226.768 948.908 227.262C945.465 227.765 942.025 228.973 940.36 232.303C940.152 232.16 939.688 231.257 939.428 230.963C937.343 228.605 934.796 227.972 931.926 227.567C937.111 226.306 936.36 222.681 936.36 218.32L936.359 201.473C936.36 199.586 936.38 197.741 936.286 195.854C936.136 192.844 934.49 192.551 931.889 192.203C932.215 192.121 932.54 192.035 932.864 191.946C936.429 190.96 938.433 189.295 940.233 186.118Z" fill="white"/>
<path d="M957.624 233.01C957.537 232.909 957.427 232.705 957.35 232.588C955.22 229.35 953.628 228.114 949.887 227.26C952.513 226.363 954.019 225.809 954.085 222.652C954.114 221.258 954.113 219.834 954.111 218.434L954.124 201.703C954.125 199.855 954.197 197.979 954.022 196.141C953.711 192.887 951.66 192.361 948.949 191.867C952.392 191.364 955.832 190.155 957.497 186.825C957.705 186.969 958.169 187.872 958.428 188.165C960.513 190.523 963.06 191.156 965.931 191.561C960.745 192.822 961.497 196.448 961.497 200.808L961.498 217.656C961.497 219.543 961.477 221.388 961.571 223.275C961.721 226.285 963.366 226.578 965.968 226.926C965.642 227.008 965.317 227.093 964.993 227.182C961.428 228.168 959.424 229.833 957.624 233.01Z" fill="white"/>
<path d="M742.792 82.5609C743.238 82.3736 743.736 82.2405 744.196 82.11C749.336 80.6484 754.477 77.707 758.675 73.5792C760.719 71.5698 760.513 72.2396 762.66 71.5718C765.946 70.5487 769.534 67.7178 771.843 64.5361C772.585 63.5111 773.246 62.2097 774.172 61.3933C774.549 61.6477 775.204 62.6979 775.425 63.1384C777.34 66.9537 780.069 69.129 783.361 70.5526C785.017 71.2695 786.404 71.3321 788.168 71.3909C785.529 72.2261 782.735 73.4222 780.407 75.1745C776.789 77.8969 775.334 80.4637 774.992 85.8006C774.667 91.3953 774.563 96.7394 774.643 102.428C774.732 108.83 773.709 117.652 776.02 123.454C777.279 126.617 779.639 127.5 782.066 128.325C781.395 128.777 780.642 129.043 779.953 129.454C774.463 132.733 774.039 139.164 774.042 146.097C777.953 144.798 782.169 142.341 784.567 137.893C784.857 137.357 785.142 136.827 785.438 136.296C784.678 145.876 773.974 152.126 767.483 153.526C757.441 155.693 746.403 153.123 737.941 145.493C728.509 136.989 722.263 120.702 724.394 105.723C725.155 100.799 728.162 93.0275 730.458 88.9351C738.078 75.3554 750.181 66.0178 762.895 63.1811L764.535 63.1384C764.399 63.3555 763.294 63.6178 763.024 63.69C756.164 65.7304 749.348 70.955 744.545 77.6831C737.703 87.0511 736.264 99.0872 736.64 111.5C736.9 120.111 738.344 129.189 743.489 135.318C749.447 129.063 748.953 126.81 748.95 117.45L748.895 84.328C747.153 82.1062 745.191 82.9193 742.95 82.5854L742.792 82.5609ZM744.093 136.288C747.383 141.882 754.157 145.351 759.357 146.728C764.197 147.602 768.277 147.858 773.103 146.367C773.185 141.559 773.528 135.815 770.745 132.091C768.987 129.74 767.447 129.496 765.349 128.399C769.736 127.368 772.1 124.613 772.685 118.579C773.135 113.945 772.937 108.827 772.936 104.122L772.93 95.186C772.923 89.8387 773.188 82.8541 770.063 78.8406C767.436 75.4658 764.017 73.7749 760.509 72.6052C760.231 75.2759 760.319 78.6307 760.32 81.3892L760.298 111.552C760.299 114.081 760.296 116.618 760.255 119.146C760.244 119.842 760.475 120.808 760.816 121.342C761.436 122.297 762.148 122.387 763.006 122.555C763.864 122.721 764.923 122.327 765.452 123.091L765.414 123.216C764.611 123.615 763.644 123.752 762.806 124.045C756.556 126.232 751.173 131.031 745.599 135.118C745.096 135.487 744.574 135.873 744.093 136.288Z" fill="white"/>
<path d="M797.353 79.4238C797.887 79.6317 799.204 82.046 799.828 82.701C800.952 83.8804 801.837 84.7142 803.124 85.5945C805.149 86.9599 807.325 87.9068 809.575 88.4022C810.227 88.5482 811.387 88.6063 811.86 88.7897L811.891 88.9325C811.524 89.176 810.478 89.2942 809.985 89.4318C809.356 89.6152 808.739 89.871 808.143 90.1965C806.3 91.2189 805.403 92.7225 806.154 95.2815C809.054 105.173 811.7 115.614 815.052 125.241C816.012 123.224 817.031 119.554 817.706 117.264C818.915 113.146 820.101 109.017 821.264 104.877C821.974 102.378 824.045 95.7899 824.247 93.6022C824.168 93.4802 824.086 93.3613 824.002 93.2464C822.308 90.9696 820.132 90.9819 817.907 90.9309C819.439 89.8903 820.45 90.0576 822.028 89.4376C827.017 87.4786 829.637 85.2955 832.992 80.3887C834.021 81.5416 834.913 82.8889 835.963 84.0231C838.896 87.1886 842.571 89.0636 846.312 89.8516C846.989 89.9943 847.643 90.159 848.306 90.3844C845.575 91.2099 841.701 93.1999 841.04 97.2741C840.397 101.232 840.515 105.894 840.513 109.954L840.507 133.316C840.507 135.593 840.48 138.851 840.699 141.118C840.819 142.378 841.147 143.588 841.662 144.667C843.922 149.323 848.533 147.845 848.937 148.706C848.08 149.205 846.94 149.27 846.076 149.703C842.28 151.608 837.854 154.227 835.955 159.202C835.321 160.863 835.074 162.95 834.749 164.746C833.936 162.763 833.434 160.307 832.5 158.326C830.556 154.202 826.706 151.377 823.255 149.918C822.25 149.493 820.65 149.087 819.578 148.732C821.801 148.207 823.342 148.554 825.463 146.968C828.202 144.918 828.261 141.509 828.464 137.861C828.59 135.579 828.588 133.389 828.59 131.142L828.594 121.872C828.594 113.922 828.754 105.616 828.143 97.7075C828.025 96.1767 827.685 95.051 827.105 93.7301C825.667 97.8044 824.145 103.698 823.063 107.907L820.272 118.515C818.859 124.223 817.173 132.097 816.889 138.117C816.827 139.447 817.069 141.401 817.482 142.646C818.401 145.418 819.653 146.035 821.604 147.042C820.799 147.625 819.784 148.041 818.975 148.543C816.217 150.254 813.708 153.23 812.883 157.163C812.764 157.73 812.67 158.948 812.435 159.361L812.293 159.342C811.525 157.311 811.826 156.164 810.527 153.998C807.762 149.385 805.244 148.61 801.136 147.821C802.056 147.124 803.099 146.745 804.03 145.999C806.361 144.132 806 140.984 805.408 138.039C804.682 134.434 803.709 130.927 802.731 127.421L798.456 112.512C797.318 108.419 796.129 104.35 794.888 100.308C794.571 99.2815 793.106 94.199 792.337 94.0195C792.318 94.0531 792.295 94.0828 792.279 94.1189C792.003 94.7519 792.095 131.909 792.187 135.808C792.226 137.447 792.295 139.066 792.546 140.678C793.055 143.931 794.657 147.198 797.284 148.028C797.993 148.251 799.098 148.245 799.7 148.769C799.579 149.021 799.64 148.909 799.384 149.057C795.797 151.142 792.38 153.63 791.238 158.88C791.082 159.597 791.038 160.935 790.713 161.37C790.199 161.327 789.854 160.393 789.551 159.855C789.053 158.956 788.436 158.179 787.729 157.562C784.432 154.631 778.43 154.209 776.015 159.017C775.442 160.145 775.252 161.53 775.489 162.846C775.991 165.531 777.863 166.758 779.499 168.115C775.411 166.361 771.437 161.671 773.624 155.582C774.903 152.019 777.37 150.553 779.897 148.796C781.486 147.706 783.187 146.993 784.903 146.308C790.582 144.039 789.848 134.285 789.836 128.009L789.856 103.019C789.85 100.137 790.04 95.9087 789.479 93.1966C789.034 91.04 786.208 89.9472 784.715 89.6688C784.123 89.5583 783.142 89.5009 782.567 89.1863C782.72 88.7445 785.254 88.4623 785.83 88.2821C789.455 87.1466 793.046 85.362 795.753 81.9072C796.259 81.2607 796.825 80.1898 797.353 79.4238Z" fill="white"/>
<path d="M839 62.3339C839.26 62.5905 841.29 68.3386 841.636 69.2139C842.477 66.9489 843.344 64.671 844.101 62.3584L846.683 62.3378L846.662 72.1002L844.936 72.0867C844.938 71.1741 845.034 65.5971 844.807 65.2363C843.975 67.2248 843.218 69.2647 842.539 71.3497L840.729 71.349C840.06 69.3226 839.073 66.8543 838.319 64.8324L838.316 72.095L836.563 72.0822L836.564 62.3371L839 62.3339Z" fill="white"/>
<path d="M827.032 62.3339L835.033 62.3346C835.024 62.8549 834.995 63.4133 834.976 63.9369L831.886 63.935C831.85 65.1452 831.861 66.4159 831.857 67.6318L831.855 72.1002L830.155 72.0873L830.147 63.9382L827.035 63.9344L827.032 62.3339Z" fill="white"/>
<path d="M786.324 186.118C786.411 186.22 786.52 186.423 786.597 186.54C788.728 189.779 790.32 191.014 794.06 191.868C791.435 192.765 789.928 193.319 789.862 196.476C789.833 197.87 789.835 199.295 789.837 200.694L789.824 217.425C789.823 219.273 789.75 221.15 789.926 222.988C790.236 226.242 792.287 226.768 794.999 227.262C791.556 227.765 788.116 228.973 786.451 232.303C786.243 232.16 785.779 231.257 785.519 230.963C783.434 228.605 780.887 227.972 778.017 227.567C783.202 226.306 782.451 222.681 782.45 218.32L782.45 201.473C782.451 199.586 782.471 197.741 782.377 195.854C782.227 192.844 780.581 192.551 777.98 192.203C778.305 192.121 778.63 192.035 778.955 191.946C782.519 190.96 784.523 189.295 786.324 186.118Z" fill="white"/>
<path d="M1045.89 0.138714H1395.01V288H1045.89V0.138714Z" fill="white"/>
<path d="M1118.78 68.7438C1119.82 68.3063 1120.98 67.9955 1122.06 67.6907C1134.06 64.2765 1146.07 57.4058 1155.88 47.7637C1160.65 43.0701 1160.17 44.6346 1165.19 43.0746C1172.86 40.6848 1181.24 34.0722 1186.63 26.6403C1188.37 24.246 1189.91 21.2059 1192.08 19.2989C1192.96 19.8934 1194.49 22.3465 1195 23.3754C1199.48 32.2874 1205.85 37.3687 1213.54 40.6939C1217.41 42.3686 1220.65 42.5149 1224.77 42.6522C1218.6 44.603 1212.08 47.3971 1206.64 51.4902C1198.19 57.8494 1194.79 63.845 1193.99 76.3114C1193.23 89.3799 1192.99 101.863 1193.18 115.15C1193.39 130.106 1191 150.713 1196.39 164.266C1199.33 171.653 1204.85 173.715 1210.51 175.643C1208.95 176.699 1207.19 177.321 1205.58 178.28C1192.76 185.939 1191.76 200.962 1191.77 217.155C1200.91 214.123 1210.76 208.382 1216.36 197.993C1217.03 196.739 1217.7 195.502 1218.39 194.262C1216.62 216.639 1191.61 231.239 1176.45 234.51C1152.99 239.57 1127.21 233.567 1107.45 215.746C1085.41 195.881 1070.82 157.837 1075.8 122.848C1077.58 111.347 1084.6 93.1924 1089.97 83.6332C1107.77 51.9126 1136.04 30.1013 1165.74 23.475L1169.57 23.3754C1169.25 23.8824 1166.67 24.4951 1166.04 24.6639C1150.01 29.4299 1134.09 41.6338 1122.87 57.35C1106.89 79.2323 1103.53 107.347 1104.41 136.341C1105.01 156.457 1108.39 177.662 1120.41 191.978C1134.32 177.368 1133.17 172.104 1133.16 150.24L1133.03 72.8716C1128.96 67.6816 1124.38 69.5811 1119.15 68.8011L1118.78 68.7438ZM1121.82 194.243C1129.5 207.311 1145.32 215.413 1157.47 218.631C1168.78 220.672 1178.31 221.269 1189.58 217.787C1189.77 206.555 1190.57 193.138 1184.07 184.439C1179.96 178.947 1176.37 178.378 1171.47 175.817C1181.71 173.407 1187.24 166.971 1188.6 152.878C1189.65 142.053 1189.19 130.098 1189.19 119.109L1189.18 98.2345C1189.16 85.7439 1189.78 69.4287 1182.48 60.0536C1176.34 52.1706 1168.36 48.2208 1160.16 45.4886C1159.51 51.7271 1159.72 59.5633 1159.72 66.007L1159.67 136.464C1159.67 142.37 1159.66 148.296 1159.57 154.203C1159.54 155.828 1160.08 158.085 1160.88 159.333C1162.33 161.562 1163.99 161.774 1165.99 162.164C1168 162.554 1170.47 161.632 1171.71 163.417L1171.62 163.709C1169.74 164.642 1167.48 164.962 1165.53 165.647C1150.93 170.755 1138.35 181.965 1125.33 191.51C1124.16 192.372 1122.94 193.274 1121.82 194.243Z" fill="white"/>
<path d="M1246.23 61.4191C1247.47 61.9049 1250.55 67.5444 1252.01 69.0742C1254.63 71.8291 1256.7 73.7769 1259.71 75.8333C1264.44 79.0227 1269.52 81.2344 1274.77 82.3916C1276.3 82.7326 1279.01 82.8684 1280.11 83.2968L1280.19 83.6303C1279.33 84.199 1276.89 84.4751 1275.73 84.7965C1274.26 85.2249 1272.82 85.8224 1271.43 86.5828C1267.13 88.9711 1265.03 92.4833 1266.78 98.4608C1273.56 121.565 1279.74 145.955 1287.57 168.442C1289.81 163.732 1292.19 155.158 1293.77 149.808C1296.59 140.19 1299.36 130.545 1302.08 120.876C1303.74 115.037 1308.58 99.6482 1309.05 94.5382C1308.86 94.2531 1308.67 93.9755 1308.47 93.7069C1304.52 88.3887 1299.44 88.4174 1294.24 88.2982C1297.82 85.8677 1300.18 86.2584 1303.86 84.8101C1315.52 80.2342 1321.64 75.1347 1329.47 63.6731C1331.88 66.3661 1333.96 69.5133 1336.41 72.1626C1343.27 79.5567 1351.85 83.9365 1360.59 85.7771C1362.17 86.1106 1363.7 86.4953 1365.25 87.0218C1358.87 88.9499 1349.82 93.5983 1348.27 103.115C1346.77 112.361 1347.05 123.25 1347.04 132.734L1347.03 187.304C1347.03 192.622 1346.97 200.234 1347.48 205.529C1347.76 208.471 1348.53 211.299 1349.73 213.818C1355.01 224.694 1365.78 221.242 1366.72 223.254C1364.72 224.42 1362.06 224.571 1360.04 225.583C1351.17 230.032 1340.83 236.15 1336.4 247.771C1334.91 251.65 1334.34 256.525 1333.58 260.721C1331.68 256.089 1330.51 250.353 1328.33 245.726C1323.78 236.091 1314.79 229.492 1306.73 226.084C1304.38 225.093 1300.65 224.144 1298.14 223.314C1303.33 222.089 1306.93 222.899 1311.89 219.194C1318.29 214.406 1318.42 206.442 1318.9 197.921C1319.19 192.591 1319.19 187.476 1319.19 182.227L1319.2 160.573C1319.2 142.002 1319.57 122.6 1318.15 104.128C1317.87 100.552 1317.08 97.9222 1315.72 94.8369C1312.36 104.354 1308.81 118.121 1306.28 127.952L1299.76 152.732C1296.46 166.064 1292.52 184.457 1291.86 198.52C1291.71 201.626 1292.28 206.19 1293.24 209.099C1295.39 215.573 1298.32 217.013 1302.87 219.366C1300.99 220.729 1298.62 221.701 1296.73 222.872C1290.29 226.868 1284.43 233.821 1282.5 243.009C1282.22 244.332 1282.01 247.179 1281.46 248.143L1281.13 248.097C1279.33 243.354 1280.03 240.675 1277 235.614C1270.54 224.839 1264.66 223.03 1255.06 221.187C1257.21 219.557 1259.65 218.673 1261.82 216.931C1267.27 212.57 1266.42 205.217 1265.04 198.337C1263.35 189.916 1261.07 181.725 1258.79 173.536L1248.8 138.71C1246.15 129.148 1243.37 119.645 1240.47 110.202C1239.73 107.804 1236.31 95.9322 1234.51 95.5128C1234.47 95.5913 1234.41 95.6607 1234.38 95.7452C1233.73 97.2237 1233.94 184.018 1234.16 193.126C1234.25 196.954 1234.41 200.736 1235 204.5C1236.19 212.1 1239.93 219.731 1246.07 221.669C1247.72 222.191 1250.3 222.178 1251.71 223.4C1251.43 223.988 1251.57 223.727 1250.97 224.074C1242.59 228.943 1234.61 234.756 1231.94 247.019C1231.58 248.693 1231.47 251.818 1230.72 252.835C1229.51 252.735 1228.71 250.552 1228 249.295C1226.84 247.195 1225.4 245.382 1223.74 243.939C1216.05 237.093 1202.02 236.108 1196.38 247.339C1195.05 249.974 1194.6 253.209 1195.16 256.284C1196.33 262.554 1200.7 265.42 1204.52 268.592C1194.97 264.494 1185.69 253.538 1190.8 239.315C1193.79 230.992 1199.55 227.567 1205.45 223.463C1209.16 220.918 1213.14 219.252 1217.15 217.652C1230.41 212.352 1228.7 189.567 1228.67 174.909L1228.71 116.534C1228.7 109.802 1229.14 99.9258 1227.83 93.5907C1226.79 88.5532 1220.19 86.0004 1216.71 85.3502C1215.32 85.0922 1213.03 84.9579 1211.69 84.2232C1212.04 83.1912 1217.96 82.5319 1219.31 82.111C1227.78 79.4587 1236.17 75.2901 1242.49 67.22C1243.67 65.7098 1244.99 63.2084 1246.23 61.4191Z" fill="white"/>
<path d="M1343.55 21.5661C1344.17 22.1681 1348.95 35.6529 1349.76 37.7063C1351.75 32.3926 1353.79 27.0488 1355.57 21.6235L1361.65 21.5752L1361.6 44.4773L1357.54 44.4457C1357.54 42.3048 1357.77 29.2213 1357.23 28.3749C1355.27 33.0398 1353.49 37.8255 1351.89 42.7167L1347.63 42.7152C1346.05 37.9612 1343.72 32.1708 1341.95 27.4274L1341.94 44.4653L1337.81 44.4351L1337.81 21.5737L1343.55 21.5661Z" fill="white"/>
<path d="M1315.51 21.5888L1334.3 21.5903C1334.27 22.8094 1334.21 24.1174 1334.16 25.344L1326.9 25.3395C1326.82 28.1743 1326.85 31.151 1326.84 33.9994L1326.83 44.4668L1322.84 44.4367L1322.82 25.347L1315.51 25.3379L1315.51 21.5888Z" fill="white"/>
<path d="M1254.12 82.5609C1254.57 82.3736 1255.06 82.2405 1255.52 82.11C1260.67 80.6484 1265.81 77.707 1270 73.5792C1272.05 71.5698 1271.84 72.2396 1273.99 71.5718C1277.27 70.5487 1280.86 67.7178 1283.17 64.5361C1283.91 63.5111 1284.57 62.2097 1285.5 61.3933C1285.88 61.6477 1286.53 62.6979 1286.75 63.1384C1288.67 66.9537 1291.4 69.129 1294.69 70.5526C1296.35 71.2695 1297.73 71.3321 1299.5 71.3909C1296.86 72.2261 1294.06 73.4222 1291.74 75.1745C1288.12 77.8969 1286.66 80.4637 1286.32 85.8006C1286 91.3953 1285.89 96.7394 1285.97 102.428C1286.06 108.83 1285.04 117.652 1287.35 123.454C1288.61 126.617 1290.97 127.5 1293.39 128.325C1292.72 128.777 1291.97 129.043 1291.28 129.454C1285.79 132.733 1285.37 139.164 1285.37 146.097C1289.28 144.798 1293.5 142.341 1295.9 137.893C1296.19 137.357 1296.47 136.827 1296.77 136.296C1296.01 145.876 1285.3 152.126 1278.81 153.526C1268.77 155.693 1257.73 153.123 1249.27 145.493C1239.84 136.989 1233.59 120.702 1235.72 105.723C1236.48 100.799 1239.49 93.0275 1241.79 88.9351C1249.41 75.3554 1261.51 66.0178 1274.22 63.1811L1275.86 63.1384C1275.73 63.3555 1274.62 63.6178 1274.35 63.69C1267.49 65.7304 1260.68 70.955 1255.87 77.6831C1249.03 87.0511 1247.59 99.0872 1247.97 111.5C1248.23 120.111 1249.67 129.189 1254.82 135.318C1260.78 129.063 1260.28 126.81 1260.28 117.45L1260.22 84.328C1258.48 82.1062 1256.52 82.9193 1254.28 82.5854L1254.12 82.5609ZM1255.42 136.288C1258.71 141.882 1265.49 145.351 1270.69 146.728C1275.53 147.602 1279.61 147.858 1284.43 146.367C1284.51 141.559 1284.86 135.815 1282.07 132.091C1280.32 129.74 1278.78 129.496 1276.68 128.399C1281.07 127.368 1283.43 124.613 1284.01 118.579C1284.46 113.945 1284.27 108.827 1284.26 104.122L1284.26 95.186C1284.25 89.8387 1284.52 82.8541 1281.39 78.8406C1278.76 75.4658 1275.35 73.7749 1271.84 72.6052C1271.56 75.2759 1271.65 78.6307 1271.65 81.3892L1271.63 111.552C1271.63 114.081 1271.63 116.618 1271.58 119.146C1271.57 119.842 1271.8 120.808 1272.14 121.342C1272.76 122.297 1273.48 122.387 1274.33 122.555C1275.19 122.721 1276.25 122.327 1276.78 123.091L1276.74 123.216C1275.94 123.615 1274.97 123.752 1274.14 124.045C1267.88 126.232 1262.5 131.031 1256.93 135.118C1256.43 135.487 1255.9 135.873 1255.42 136.288Z" fill="var(--fill-0, black)"/>
<path d="M1308.68 79.4238C1309.22 79.6317 1310.53 82.046 1311.16 82.701C1312.28 83.8804 1313.17 84.7142 1314.45 85.5945C1316.48 86.9599 1318.65 87.9068 1320.9 88.4022C1321.56 88.5482 1322.72 88.6063 1323.19 88.7897L1323.22 88.9325C1322.85 89.176 1321.81 89.2942 1321.31 89.4318C1320.68 89.6152 1320.07 89.871 1319.47 90.1965C1317.63 91.2189 1316.73 92.7225 1317.48 95.2815C1320.38 105.173 1323.03 115.614 1326.38 125.241C1327.34 123.224 1328.36 119.554 1329.03 117.264C1330.24 113.146 1331.43 109.017 1332.59 104.877C1333.3 102.378 1335.37 95.7899 1335.58 93.6022C1335.5 93.4802 1335.42 93.3613 1335.33 93.2464C1333.64 90.9696 1331.46 90.9819 1329.24 90.9309C1330.77 89.8903 1331.78 90.0576 1333.36 89.4376C1338.35 87.4786 1340.97 85.2955 1344.32 80.3887C1345.35 81.5416 1346.24 82.8889 1347.29 84.0231C1350.22 87.1886 1353.9 89.0636 1357.64 89.8516C1358.32 89.9943 1358.97 90.159 1359.63 90.3844C1356.9 91.2099 1353.03 93.1999 1352.37 97.2741C1351.73 101.232 1351.84 105.894 1351.84 109.954L1351.84 133.316C1351.84 135.593 1351.81 138.851 1352.03 141.118C1352.15 142.378 1352.48 143.588 1352.99 144.667C1355.25 149.323 1359.86 147.845 1360.27 148.706C1359.41 149.205 1358.27 149.27 1357.41 149.703C1353.61 151.608 1349.18 154.227 1347.28 159.202C1346.65 160.863 1346.4 162.95 1346.08 164.746C1345.26 162.763 1344.76 160.307 1343.83 158.326C1341.88 154.202 1338.03 151.377 1334.58 149.918C1333.58 149.493 1331.98 149.087 1330.91 148.732C1333.13 148.207 1334.67 148.554 1336.79 146.968C1339.53 144.918 1339.59 141.509 1339.79 137.861C1339.92 135.579 1339.92 133.389 1339.92 131.142L1339.92 121.872C1339.92 113.922 1340.08 105.616 1339.47 97.7075C1339.35 96.1767 1339.01 95.051 1338.43 93.7301C1337 97.8044 1335.47 103.698 1334.39 107.907L1331.6 118.515C1330.19 124.223 1328.5 132.097 1328.22 138.117C1328.16 139.447 1328.4 141.401 1328.81 142.646C1329.73 145.418 1330.98 146.035 1332.93 147.042C1332.13 147.625 1331.11 148.041 1330.3 148.543C1327.55 150.254 1325.04 153.23 1324.21 157.163C1324.09 157.73 1324 158.948 1323.76 159.361L1323.62 159.342C1322.85 157.311 1323.15 156.164 1321.86 153.998C1319.09 149.385 1316.57 148.61 1312.46 147.821C1313.39 147.124 1314.43 146.745 1315.36 145.999C1317.69 144.132 1317.33 140.984 1316.74 138.039C1316.01 134.434 1315.04 130.927 1314.06 127.421L1309.78 112.512C1308.65 108.419 1307.46 104.35 1306.22 100.308C1305.9 99.2815 1304.44 94.199 1303.67 94.0195C1303.65 94.0531 1303.62 94.0828 1303.61 94.1189C1303.33 94.7519 1303.42 131.909 1303.52 135.808C1303.55 137.447 1303.62 139.066 1303.88 140.678C1304.38 143.931 1305.99 147.198 1308.61 148.028C1309.32 148.251 1310.43 148.245 1311.03 148.769C1310.91 149.021 1310.97 148.909 1310.71 149.057C1307.13 151.142 1303.71 153.63 1302.57 158.88C1302.41 159.597 1302.37 160.935 1302.04 161.37C1301.53 161.327 1301.18 160.393 1300.88 159.855C1300.38 158.956 1299.76 158.179 1299.06 157.562C1295.76 154.631 1289.76 154.209 1287.34 159.017C1286.77 160.145 1286.58 161.53 1286.82 162.846C1287.32 165.531 1289.19 166.758 1290.83 168.115C1286.74 166.361 1282.77 161.671 1284.95 155.582C1286.23 152.019 1288.7 150.553 1291.23 148.796C1292.82 147.706 1294.52 146.993 1296.23 146.308C1301.91 144.039 1301.18 134.285 1301.16 128.009L1301.18 103.019C1301.18 100.137 1301.37 95.9087 1300.81 93.1966C1300.36 91.04 1297.54 89.9472 1296.04 89.6688C1295.45 89.5583 1294.47 89.5009 1293.9 89.1863C1294.05 88.7445 1296.58 88.4623 1297.16 88.2821C1300.78 87.1466 1304.38 85.362 1307.08 81.9072C1307.59 81.2607 1308.15 80.1898 1308.68 79.4238Z" fill="var(--fill-0, black)"/>
<path d="M1350.33 62.3339C1350.59 62.5905 1352.62 68.3386 1352.97 69.2139C1353.81 66.9489 1354.68 64.671 1355.43 62.3584L1358.02 62.3378L1357.99 72.1002L1356.27 72.0867C1356.27 71.1741 1356.37 65.5971 1356.14 65.2363C1355.31 67.2248 1354.55 69.2647 1353.87 71.3497L1352.06 71.349C1351.39 69.3226 1350.41 66.8543 1349.65 64.8324L1349.65 72.095L1347.9 72.0822L1347.9 62.3371L1350.33 62.3339Z" fill="var(--fill-0, black)"/>
<path d="M1338.36 62.3339L1346.37 62.3346C1346.36 62.8549 1346.33 63.4133 1346.31 63.9369L1343.22 63.935C1343.18 65.1452 1343.19 66.4159 1343.19 67.6318L1343.19 72.1002L1341.49 72.0873L1341.48 63.9382L1338.37 63.9344L1338.36 62.3339Z" fill="var(--fill-0, black)"/>
<path d="M1289.07 186.118C1289.16 186.22 1289.27 186.423 1289.35 186.54C1291.48 189.779 1293.07 191.014 1296.81 191.868C1294.18 192.765 1292.68 193.319 1292.61 196.476C1292.58 197.87 1292.58 199.295 1292.58 200.694L1292.57 217.425C1292.57 219.273 1292.5 221.15 1292.67 222.988C1292.98 226.242 1295.04 226.768 1297.75 227.262C1294.3 227.765 1290.86 228.973 1289.2 232.303C1288.99 232.16 1288.53 231.257 1288.27 230.963C1286.18 228.605 1283.64 227.972 1280.76 227.567C1285.95 226.306 1285.2 222.681 1285.2 218.32L1285.2 201.473C1285.2 199.586 1285.22 197.741 1285.12 195.854C1284.97 192.844 1283.33 192.551 1280.73 192.203C1281.05 192.121 1281.38 192.035 1281.7 191.946C1285.27 190.96 1287.27 189.295 1289.07 186.118Z" fill="var(--fill-0, black)"/>
<path d="M1306.46 233.01C1306.38 232.909 1306.27 232.705 1306.19 232.588C1304.06 229.35 1302.47 228.114 1298.73 227.26C1301.35 226.363 1302.86 225.809 1302.92 222.652C1302.95 221.258 1302.95 219.834 1302.95 218.434L1302.96 201.703C1302.96 199.855 1303.04 197.979 1302.86 196.141C1302.55 192.887 1300.5 192.361 1297.79 191.867C1301.23 191.364 1304.67 190.155 1306.34 186.825C1306.54 186.969 1307.01 187.872 1307.27 188.165C1309.35 190.523 1311.9 191.156 1314.77 191.561C1309.58 192.822 1310.34 196.448 1310.34 200.808L1310.34 217.656C1310.34 219.543 1310.32 221.388 1310.41 223.275C1310.56 226.285 1312.21 226.578 1314.81 226.926C1314.48 227.008 1314.16 227.093 1313.83 227.182C1310.27 228.168 1308.26 229.833 1306.46 233.01Z" fill="var(--fill-0, black)"/>
<path d="M1091.62 82.5609C1092.07 82.3736 1092.56 82.2405 1093.02 82.11C1098.16 80.6484 1103.31 77.707 1107.5 73.5792C1109.55 71.5698 1109.34 72.2396 1111.49 71.5718C1114.77 70.5487 1118.36 67.7178 1120.67 64.5361C1121.41 63.5111 1122.07 62.2097 1123 61.3933C1123.38 61.6477 1124.03 62.6979 1124.25 63.1384C1126.17 66.9537 1128.9 69.129 1132.19 70.5526C1133.85 71.2695 1135.23 71.3321 1137 71.3909C1134.36 72.2261 1131.56 73.4222 1129.24 75.1745C1125.62 77.8969 1124.16 80.4637 1123.82 85.8006C1123.5 91.3953 1123.39 96.7394 1123.47 102.428C1123.56 108.83 1122.54 117.652 1124.85 123.454C1126.11 126.617 1128.47 127.5 1130.89 128.325C1130.22 128.777 1129.47 129.043 1128.78 129.454C1123.29 132.733 1122.87 139.164 1122.87 146.097C1126.78 144.798 1131 142.341 1133.4 137.893C1133.69 137.357 1133.97 136.827 1134.27 136.296C1133.51 145.876 1122.8 152.126 1116.31 153.526C1106.27 155.693 1095.23 153.123 1086.77 145.493C1077.34 136.989 1071.09 120.702 1073.22 105.723C1073.98 100.799 1076.99 93.0275 1079.29 88.9351C1086.91 75.3554 1099.01 66.0178 1111.72 63.1811L1113.36 63.1384C1113.23 63.3555 1112.12 63.6178 1111.85 63.69C1104.99 65.7304 1098.18 70.955 1093.37 77.6831C1086.53 87.0511 1085.09 99.0872 1085.47 111.5C1085.73 120.111 1087.17 129.189 1092.32 135.318C1098.28 129.063 1097.78 126.81 1097.78 117.45L1097.72 84.328C1095.98 82.1062 1094.02 82.9193 1091.78 82.5854L1091.62 82.5609ZM1092.92 136.288C1096.21 141.882 1102.99 145.351 1108.19 146.728C1113.03 147.602 1117.11 147.858 1121.93 146.367C1122.01 141.559 1122.36 135.815 1119.57 132.091C1117.82 129.74 1116.28 129.496 1114.18 128.399C1118.56 127.368 1120.93 124.613 1121.51 118.579C1121.96 113.945 1121.77 108.827 1121.76 104.122L1121.76 95.186C1121.75 89.8387 1122.02 82.8541 1118.89 78.8406C1116.26 75.4658 1112.85 73.7749 1109.34 72.6052C1109.06 75.2759 1109.15 78.6307 1109.15 81.3892L1109.13 111.552C1109.13 114.081 1109.13 116.618 1109.08 119.146C1109.07 119.842 1109.3 120.808 1109.64 121.342C1110.26 122.297 1110.98 122.387 1111.83 122.555C1112.69 122.721 1113.75 122.327 1114.28 123.091L1114.24 123.216C1113.44 123.615 1112.47 123.752 1111.64 124.045C1105.38 126.232 1100 131.031 1094.43 135.118C1093.93 135.487 1093.4 135.873 1092.92 136.288Z" fill="var(--fill-0, black)"/>
<path d="M1146.18 79.4238C1146.72 79.6317 1148.03 82.046 1148.66 82.701C1149.78 83.8804 1150.67 84.7142 1151.95 85.5945C1153.98 86.9599 1156.15 87.9068 1158.4 88.4022C1159.06 88.5482 1160.22 88.6063 1160.69 88.7897L1160.72 88.9325C1160.35 89.176 1159.31 89.2942 1158.81 89.4318C1158.18 89.6152 1157.57 89.871 1156.97 90.1965C1155.13 91.2189 1154.23 92.7225 1154.98 95.2815C1157.88 105.173 1160.53 115.614 1163.88 125.241C1164.84 123.224 1165.86 119.554 1166.53 117.264C1167.74 113.146 1168.93 109.017 1170.09 104.877C1170.8 102.378 1172.87 95.7899 1173.08 93.6022C1173 93.4802 1172.92 93.3613 1172.83 93.2464C1171.14 90.9696 1168.96 90.9819 1166.74 90.9309C1168.27 89.8903 1169.28 90.0576 1170.86 89.4376C1175.85 87.4786 1178.47 85.2955 1181.82 80.3887C1182.85 81.5416 1183.74 82.8889 1184.79 84.0231C1187.72 87.1886 1191.4 89.0636 1195.14 89.8516C1195.82 89.9943 1196.47 90.159 1197.13 90.3844C1194.4 91.2099 1190.53 93.1999 1189.87 97.2741C1189.23 101.232 1189.34 105.894 1189.34 109.954L1189.34 133.316C1189.34 135.593 1189.31 138.851 1189.53 141.118C1189.65 142.378 1189.98 143.588 1190.49 144.667C1192.75 149.323 1197.36 147.845 1197.77 148.706C1196.91 149.205 1195.77 149.27 1194.91 149.703C1191.11 151.608 1186.68 154.227 1184.78 159.202C1184.15 160.863 1183.9 162.95 1183.58 164.746C1182.76 162.763 1182.26 160.307 1181.33 158.326C1179.38 154.202 1175.53 151.377 1172.08 149.918C1171.08 149.493 1169.48 149.087 1168.41 148.732C1170.63 148.207 1172.17 148.554 1174.29 146.968C1177.03 144.918 1177.09 141.509 1177.29 137.861C1177.42 135.579 1177.42 133.389 1177.42 131.142L1177.42 121.872C1177.42 113.922 1177.58 105.616 1176.97 97.7075C1176.85 96.1767 1176.51 95.051 1175.93 93.7301C1174.5 97.8044 1172.97 103.698 1171.89 107.907L1169.1 118.515C1167.69 124.223 1166 132.097 1165.72 138.117C1165.66 139.447 1165.9 141.401 1166.31 142.646C1167.23 145.418 1168.48 146.035 1170.43 147.042C1169.63 147.625 1168.61 148.041 1167.8 148.543C1165.05 150.254 1162.54 153.23 1161.71 157.163C1161.59 157.73 1161.5 158.948 1161.26 159.361L1161.12 159.342C1160.35 157.311 1160.65 156.164 1159.36 153.998C1156.59 149.385 1154.07 148.61 1149.96 147.821C1150.89 147.124 1151.93 146.745 1152.86 145.999C1155.19 144.132 1154.83 140.984 1154.24 138.039C1153.51 134.434 1152.54 130.927 1151.56 127.421L1147.28 112.512C1146.15 108.419 1144.96 104.35 1143.72 100.308C1143.4 99.2815 1141.94 94.199 1141.17 94.0195C1141.15 94.0531 1141.12 94.0828 1141.11 94.1189C1140.83 94.7519 1140.92 131.909 1141.02 135.808C1141.05 137.447 1141.12 139.066 1141.38 140.678C1141.88 143.931 1143.49 147.198 1146.11 148.028C1146.82 148.251 1147.93 148.245 1148.53 148.769C1148.41 149.021 1148.47 148.909 1148.21 149.057C1144.63 151.142 1141.21 153.63 1140.07 158.88C1139.91 159.597 1139.87 160.935 1139.54 161.37C1139.03 161.327 1138.68 160.393 1138.38 159.855C1137.88 158.956 1137.26 158.179 1136.56 157.562C1133.26 154.631 1127.26 154.209 1124.84 159.017C1124.27 160.145 1124.08 161.53 1124.32 162.846C1124.82 165.531 1126.69 166.758 1128.33 168.115C1124.24 166.361 1120.27 161.671 1122.45 155.582C1123.73 152.019 1126.2 150.553 1128.73 148.796C1130.32 147.706 1132.02 146.993 1133.73 146.308C1139.41 144.039 1138.68 134.285 1138.66 128.009L1138.68 103.019C1138.68 100.137 1138.87 95.9087 1138.31 93.1966C1137.86 91.04 1135.04 89.9472 1133.54 89.6688C1132.95 89.5583 1131.97 89.5009 1131.4 89.1863C1131.55 88.7445 1134.08 88.4623 1134.66 88.2821C1138.28 87.1466 1141.88 85.362 1144.58 81.9072C1145.09 81.2607 1145.65 80.1898 1146.18 79.4238Z" fill="var(--fill-0, black)"/>
<path d="M1187.83 62.3339C1188.09 62.5905 1190.12 68.3386 1190.47 69.2139C1191.31 66.9489 1192.18 64.671 1192.94 62.3584L1195.52 62.3378L1195.5 72.1002L1193.77 72.0867C1193.77 71.1741 1193.87 65.5971 1193.64 65.2363C1192.81 67.2248 1192.05 69.2647 1191.37 71.3497L1189.56 71.349C1188.89 69.3226 1187.91 66.8543 1187.15 64.8324L1187.15 72.095L1185.4 72.0822L1185.4 62.3371L1187.83 62.3339Z" fill="var(--fill-0, black)"/>
<path d="M1175.87 62.3339L1183.87 62.3346C1183.86 62.8549 1183.83 63.4133 1183.81 63.9369L1180.72 63.935C1180.68 65.1452 1180.7 66.4159 1180.69 67.6318L1180.69 72.1002L1178.99 72.0873L1178.98 63.9382L1175.87 63.9344L1175.87 62.3339Z" fill="var(--fill-0, black)"/>
<path d="M1135.16 186.118C1135.25 186.22 1135.36 186.423 1135.44 186.54C1137.57 189.779 1139.16 191.014 1142.9 191.868C1140.27 192.765 1138.77 193.319 1138.7 196.476C1138.67 197.87 1138.67 199.295 1138.68 200.694L1138.66 217.425C1138.66 219.273 1138.59 221.15 1138.76 222.988C1139.07 226.242 1141.13 226.768 1143.84 227.262C1140.39 227.765 1136.95 228.973 1135.29 232.303C1135.08 232.16 1134.62 231.257 1134.36 230.963C1132.27 228.605 1129.73 227.972 1126.86 227.567C1132.04 226.306 1131.29 222.681 1131.29 218.32L1131.29 201.473C1131.29 199.586 1131.31 197.741 1131.22 195.854C1131.07 192.844 1129.42 192.551 1126.82 192.203C1127.14 192.121 1127.47 192.035 1127.79 191.946C1131.36 190.96 1133.36 189.295 1135.16 186.118Z" fill="var(--fill-0, black)"/>
<path d="M854.167 31.7823C854.167 33.8816 852.55 35.0372 849.622 35.0372C846.464 35.0372 844.788 33.8431 844.711 31.5705H847.35C847.581 32.6875 848.236 32.9186 849.468 32.9186C850.72 32.9186 851.471 32.6683 851.471 32.0327C851.471 31.7438 851.24 31.532 850.566 31.3201L847.35 30.3186C845.424 29.7216 845.077 29.0283 845.077 27.7571C845.077 25.6194 846.714 24.2905 849.353 24.2905C852.145 24.2905 853.84 25.6194 853.878 27.8149H851.279C851.259 26.8712 850.624 26.409 849.333 26.409C848.39 26.409 847.773 26.7942 847.773 27.372C847.773 27.7957 847.966 27.969 848.717 28.1808L852.126 29.1631C853.493 29.5675 854.167 30.4534 854.167 31.6475V31.7823Z" fill="white"/>
<path d="M858.841 34.8638H856.145V24.4638H858.841V34.8638ZM858.879 23.2119H856.183V20.5156H858.879V23.2119Z" fill="white"/>
<path d="M869.228 34.8638H860.619V32.6875L865.761 26.6401H860.966V24.4638H869.055V26.6401L863.951 32.6875H869.228V34.8638Z" fill="white"/>
<path d="M873.831 34.8638H871.135V24.4638H873.831V34.8638ZM873.869 23.2119H871.173V20.5156H873.869V23.2119Z" fill="white"/>
<path d="M885.72 34.8638H883.024V28.4505C883.024 27.2179 882.446 26.5823 881.29 26.5823C879.981 26.5823 879.114 27.3912 879.114 28.6238V34.8638H876.418V24.4638H879.114V25.966C879.884 24.8105 880.828 24.2905 882.234 24.2905C884.449 24.2905 885.72 25.6001 885.72 27.892V34.8638Z" fill="white"/>
<path d="M897.397 35.2105C897.397 37.6564 895.587 39.0623 892.448 39.0623C889.597 39.0623 887.883 37.8105 887.845 36.1157H890.637C890.849 36.9053 891.523 37.329 892.544 37.329C893.892 37.329 894.836 36.4623 894.836 35.2105V33.6697C893.835 34.6712 893.103 35.0372 891.889 35.0372C889.328 35.0372 887.633 33.0149 887.633 29.7794C887.633 26.5631 889.482 24.2905 891.947 24.2905C893.141 24.2905 894.027 24.8297 894.836 26.0623V24.4638H897.397V35.2105ZM894.874 29.7408C894.874 27.8149 893.873 26.5438 892.525 26.5438C891.215 26.5438 890.329 27.7764 890.329 29.7408C890.329 31.6283 891.215 32.7838 892.486 32.7838C893.892 32.7838 894.874 31.6283 894.874 29.7408Z" fill="white"/>
<path d="M1203.07 31.7823C1203.07 33.8816 1201.45 35.0372 1198.53 35.0372C1195.37 35.0372 1193.69 33.8431 1193.62 31.5705H1196.25C1196.49 32.6875 1197.14 32.9186 1198.37 32.9186C1199.62 32.9186 1200.38 32.6683 1200.38 32.0327C1200.38 31.7438 1200.14 31.532 1199.47 31.3201L1196.25 30.3186C1194.33 29.7216 1193.98 29.0283 1193.98 27.7571C1193.98 25.6194 1195.62 24.2905 1198.26 24.2905C1201.05 24.2905 1202.74 25.6194 1202.78 27.8149H1200.18C1200.16 26.8712 1199.53 26.409 1198.24 26.409C1197.29 26.409 1196.68 26.7942 1196.68 27.372C1196.68 27.7957 1196.87 27.969 1197.62 28.1808L1201.03 29.1631C1202.4 29.5675 1203.07 30.4534 1203.07 31.6475V31.7823Z" fill="var(--fill-0, black)"/>
<path d="M1207.75 34.8638H1205.05V24.4638H1207.75V34.8638ZM1207.78 23.2119H1205.09V20.5156H1207.78V23.2119Z" fill="var(--fill-0, black)"/>
<path d="M1218.13 34.8638H1209.52V32.6875L1214.67 26.6401H1209.87V24.4638H1217.96V26.6401L1212.86 32.6875H1218.13V34.8638Z" fill="var(--fill-0, black)"/>
<path d="M1222.74 34.8638H1220.04V24.4638H1222.74V34.8638ZM1222.77 23.2119H1220.08V20.5156H1222.77V23.2119Z" fill="var(--fill-0, black)"/>
<path d="M1234.62 34.8638H1231.93V28.4505C1231.93 27.2179 1231.35 26.5823 1230.2 26.5823C1228.89 26.5823 1228.02 27.3912 1228.02 28.6238V34.8638H1225.32V24.4638H1228.02V25.966C1228.79 24.8105 1229.73 24.2905 1231.14 24.2905C1233.35 24.2905 1234.62 25.6001 1234.62 27.892V34.8638Z" fill="var(--fill-0, black)"/>
<path d="M1246.3 35.2105C1246.3 37.6564 1244.49 39.0623 1241.35 39.0623C1238.5 39.0623 1236.79 37.8105 1236.75 36.1157H1239.54C1239.75 36.9053 1240.43 37.329 1241.45 37.329C1242.8 37.329 1243.74 36.4623 1243.74 35.2105V33.6697C1242.74 34.6712 1242.01 35.0372 1240.79 35.0372C1238.23 35.0372 1236.54 33.0149 1236.54 29.7794C1236.54 26.5631 1238.39 24.2905 1240.85 24.2905C1242.05 24.2905 1242.93 24.8297 1243.74 26.0623V24.4638H1246.3V35.2105ZM1243.78 29.7408C1243.78 27.8149 1242.78 26.5438 1241.43 26.5438C1240.12 26.5438 1239.23 27.7764 1239.23 29.7408C1239.23 31.6283 1240.12 32.7838 1241.39 32.7838C1242.8 32.7838 1243.78 31.6283 1243.78 29.7408Z" fill="var(--fill-0, black)"/>
</g>
</svg>
