<svg preserveAspectRatio="none" width="100%" height="100%" overflow="visible" style="display: block;" viewBox="0 0 209 64" fill="none" xmlns="http://www.w3.org/2000/svg">
<g id="Vector">
<path fill-rule="evenodd" clip-rule="evenodd" d="M202.045 0.209759C203.264 0.0257155 207.977 -0.19803 209 0.320449C208.36 0.567483 206.928 0.577153 206.182 0.59131C192.944 1.1336 179.812 3.19789 167.041 6.74438C165.411 7.19741 161.061 8.45461 159.756 9.31082C161.023 9.39268 162.888 9.08405 163.367 10.2537C163.006 12.3898 158.267 15.2857 156.17 15.1128C154.927 14.4207 155.92 13.7684 155.421 12.4264L155.042 12.2985C153.882 12.5341 152.101 13.8417 151.044 14.5432C150.883 15.184 150.718 15.8237 150.548 16.4621C160.289 15.9292 169.614 15.5143 179.374 16.0814C182.865 16.2841 186.297 16.2345 189.762 16.8699C187.417 17.3474 181.283 17.2042 178.243 17.4313C168.388 18.1675 158.228 19.1541 148.585 21.4045C147.915 22.8385 142.033 34.9975 138.803 33.2146C136.302 31.8358 140.826 24.6404 142.043 22.7177C125.42 26.8643 108.714 32.043 93.4456 39.9588C90.9593 41.2493 85.3524 45.9397 82.969 45.3817L82.8647 45.0553C83.8515 43.4631 94.4902 37.7121 96.9265 36.0543C103.803 31.3783 110.867 27.1987 117.501 22.0683C112.893 23.0129 97.1521 26.0478 93.9418 27.841C92.0919 28.8751 88.4044 32.4308 86.3778 33.9963C67.2526 48.7732 27.0034 66.9273 2.32712 63.6014C1.54784 63.4947 0.508738 63.4146 0 62.7417L0.0862237 62.2226C0.763747 61.4716 8.37186 57.9201 9.79875 57.2081C37.1973 43.5412 64.0776 34.581 93.4621 26.5504C94.6955 25.2864 99.3429 20.8649 99.1911 19.1365C96.9432 16.7119 71.8937 23.9528 67.5843 24.3092C65.108 24.6853 62.6888 25.1244 60.1683 24.8885C51.9979 24.0187 50.4031 19.2921 57.2274 14.3477C64.2683 9.19223 72.7288 5.06607 81.3985 3.7757C83.0925 3.52375 86.5494 3.50385 87.5695 5.23288C89.737 8.90699 84.1022 12.8279 81.4684 14.5213C76.1785 17.959 70.1331 20.0397 63.8603 20.5813C62.565 20.7038 60.2151 21.1907 59.431 19.956C59.4793 19.7366 59.494 19.3858 59.8388 19.4047C68.4559 19.854 77.2635 16.8695 83.8649 11.2659C88.4298 7.39113 87.3802 4.11387 81.378 4.90297C73.5122 5.93666 65.7784 9.68172 59.2667 14.1745C57.5892 15.3319 51.9384 19.4513 55.2018 21.9469C60.2708 24.8803 67.1672 23.0759 72.5363 22.0078C79.5144 20.6195 86.2839 18.8365 93.2903 17.7179C104.801 15.8801 100.428 20.9029 95.5127 26.1134C101.618 24.2032 112.917 21.9115 119.23 20.7823C121.436 18.8066 123.574 17.3343 122.903 13.9333C122.459 11.6868 119.061 9.87294 120.211 7.83348L120.616 7.73709C122.259 8.52642 123.252 11.5243 123.886 13.1522C125.091 11.7967 127.98 7.79492 129.745 8.69482C130.426 9.7603 130.149 10.9532 130.005 12.1916C130.876 11.3272 132.943 9.16533 134.076 8.93184C135.295 8.68054 134.798 10.0769 135.709 10.6577C137.054 9.89953 138.625 5.61471 140.897 6.7487C141.28 6.93951 141.251 7.01446 141.351 7.40389C140.802 9.74515 136.978 11.2015 137.305 13.0303C138.867 14.3169 142.017 12.6223 143.573 11.7897C144.664 9.56827 147.981 4.2501 150.51 3.9154C153.202 4.82331 151.841 10.7392 151.418 12.9549C152.368 12.3445 153.447 11.6295 154.473 11.1894C155.613 10.7004 155.573 11.1516 156.484 10.239C155.629 10.3747 154.632 10.7474 154.109 9.99523L154.272 9.6218C157.058 8.49702 160.59 7.54402 163.49 6.69582C175.381 3.21642 189.646 0.537428 202.045 0.209759ZM90.7675 28.3896C68.1609 34.5983 45.8239 41.9519 24.4853 51.7799C21.9401 52.9514 4.35878 61.0066 3.55928 61.9998L3.67574 62.2296L4.61583 62.3855C29.3954 63.6946 57.2468 51.1541 77.9664 38.4085C80.8091 36.6604 89.0323 30.9789 91.1178 28.5722L91.0422 28.363L90.7675 28.3896ZM145.299 18.0209C144.936 17.9146 144.93 17.8725 144.576 17.9763C137.242 18.6027 129.867 19.9015 122.631 21.1137C120.064 21.5436 116.78 23.7409 114.855 25.4131C113.276 26.7858 100.379 34.9109 100.118 35.4464L100.73 35.2925C115.154 29.0674 127.393 25.5835 142.575 21.8546C143.124 21.1156 145.104 18.6486 145.299 18.0209ZM146.472 21.8416C145.559 22.0257 144.317 22.237 143.443 22.4727C142.118 24.56 139.105 29.172 139.353 31.6403C139.677 32.026 139.489 31.9563 139.872 31.9891C142.437 30.2184 146.027 25.0787 146.992 22.2109L146.92 21.8195L146.472 21.8416ZM148.576 17.4362C147.171 17.634 144.644 20.0876 144.568 21.2868L144.83 21.3135L147.735 20.698C148.094 19.8828 148.721 18.6037 148.868 17.7694C148.701 17.4929 148.795 17.5269 148.576 17.4362ZM175.412 16.8637C172.929 16.3485 165.519 16.6139 162.733 16.7413C158.583 16.8819 154.435 17.0772 150.289 17.3273L149.01 20.4762C152.64 19.6703 156.595 19.0924 160.292 18.5491C165.313 17.833 170.356 17.2709 175.412 16.8637ZM151.022 9.68239C149.356 11.4806 145.675 17.2282 143.178 15.271C142.92 14.6543 142.909 14.3408 142.833 13.6931C142.078 13.5607 137.362 15.984 136.79 14.3416C136.021 12.13 134.911 12.0358 133.751 10.5583C132.946 11.4006 130.998 13.6095 129.947 13.8402C128.54 13.2593 129.461 10.7255 128.701 9.82641C126.999 11.3542 125.467 13.2322 124.029 15.0135C124.138 17.8544 123.324 18.4967 121.281 20.3675C127.791 19.2008 139.947 17.2063 146.597 16.8843L148.532 14.919C149.157 14.4261 149.836 13.8666 150.476 13.4086C150.616 12.0093 150.753 11.062 151.022 9.68239ZM147.31 11.7261C146.425 12.1451 144.616 12.8581 144.199 13.6614C144.214 14.3341 144.128 14.072 144.576 14.6432C145.607 13.9542 146.81 13.1038 147.445 12.0075L147.31 11.7261ZM159.958 10.4053C158.419 10.8366 156.917 11.459 156.44 13.2332L156.593 13.5412C157.213 13.7066 157.635 13.4979 158.239 13.2976C159.188 12.7404 160.656 11.9683 161.387 11.2085L161.507 10.7451C160.9 10.3411 160.765 10.4605 159.958 10.4053ZM150.38 5.323C148.332 6.79268 146.429 9.01639 145.051 11.1328L145.023 11.4623L145.255 11.5363C148.267 10.1007 148.936 9.1834 150.765 6.28629C150.775 5.88148 150.835 5.54643 150.38 5.323Z" fill="var(--fill-0, black)"/>
<path d="M192.911 15.1184C193.873 14.746 194.953 15.2265 195.326 16.1929C195.699 17.1593 195.224 18.2476 194.267 18.6265C193.303 19.0071 192.217 18.5276 191.842 17.5565C191.467 16.5856 191.948 15.4926 192.911 15.1184Z" fill="var(--fill-0, black)"/>
</g>
</svg>
