<svg preserveAspectRatio="none" width="100%" height="100%" overflow="visible" style="display: block;" viewBox="0 0 419.438 127.553" fill="none" xmlns="http://www.w3.org/2000/svg">
<g id="Vector">
<path fill-rule="evenodd" clip-rule="evenodd" d="M405.481 0.418052C407.926 0.0512512 417.385 -0.394677 419.438 0.638658C418.154 1.131 415.279 1.15027 413.782 1.17849C387.217 2.25927 360.862 6.37343 335.231 13.4416C331.96 14.3445 323.23 16.8501 320.611 18.5566C323.155 18.7197 326.898 18.1046 327.858 20.4358C327.134 24.6931 317.623 30.4647 313.414 30.12C310.92 28.7407 312.914 27.4407 311.912 24.7659L311.151 24.5111C308.823 24.9805 305.248 27.5866 303.127 28.9847C302.804 30.2618 302.472 31.5369 302.132 32.8091C321.682 31.7471 340.395 30.9202 359.983 32.0505C366.989 32.4545 373.875 32.3556 380.831 33.622C376.123 34.5735 363.813 34.2881 357.713 34.7408C337.934 36.208 317.545 38.1744 298.193 42.6595C296.847 45.5174 285.043 69.7504 278.56 66.1971C273.543 63.4491 282.621 49.1086 285.064 45.2766C251.702 53.5409 218.177 63.8621 187.534 79.6383C182.545 82.2104 171.292 91.5584 166.509 90.4462L166.3 89.7958C168.28 86.6225 189.631 75.1607 194.52 71.8566C208.32 62.5373 222.496 54.2074 235.811 43.9823C226.564 45.865 194.973 51.9135 188.53 55.4874C184.818 57.5484 177.417 64.635 173.35 67.7551C134.968 97.2056 54.1926 133.387 4.67025 126.758C3.10634 126.546 1.02098 126.386 0 125.045L0.173041 124.01C1.53275 122.514 16.8013 115.435 19.6649 114.016C74.6506 86.7782 128.596 68.9204 187.568 52.9152C190.043 50.3961 199.37 41.584 199.065 38.1393C194.554 33.3071 144.282 47.7382 135.634 48.4485C130.664 49.1981 125.809 50.0733 120.751 49.603C104.354 47.8696 101.153 38.4494 114.849 28.5952C128.979 18.3202 145.958 10.0967 163.357 7.52502C166.757 7.02287 173.694 6.98322 175.742 10.4292C180.092 17.7517 168.783 25.5662 163.497 28.9411C152.881 35.7925 140.749 39.9393 128.16 41.0189C125.561 41.263 120.845 42.2334 119.271 39.7725C119.368 39.3354 119.397 38.6362 120.089 38.6738C137.383 39.5693 155.059 33.6211 168.307 22.4531C177.468 14.7306 175.362 8.19899 163.316 9.77168C147.53 11.8318 132.009 19.2958 118.941 28.2499C115.575 30.5567 104.234 38.7667 110.784 43.7404C120.956 49.5867 134.797 45.9906 145.572 43.8617C159.576 41.095 173.162 37.5414 187.223 35.312C210.322 31.6493 201.548 41.6597 191.683 52.0443C203.936 48.2372 226.612 43.67 239.28 41.4193C243.707 37.4818 247.998 34.5474 246.651 27.7691C245.761 23.2919 238.941 19.6769 241.248 15.6122L242.062 15.4201C245.36 16.9933 247.353 22.968 248.624 26.2124C251.042 23.5111 256.841 15.5354 260.383 17.3289C261.749 19.4524 261.194 21.8299 260.904 24.2981C262.653 22.5753 266.8 18.2666 269.074 17.8013C271.521 17.3004 270.523 20.0833 272.351 21.241C275.052 19.7299 278.204 11.1902 282.764 13.4502C283.532 13.8305 283.474 13.9799 283.675 14.756C282.574 19.4222 274.898 22.3247 275.554 25.9694C278.69 28.5337 285.01 25.1564 288.135 23.497C290.324 19.0697 296.98 8.47049 302.055 7.80345C307.458 9.61292 304.728 21.4034 303.879 25.8194C305.785 24.6028 307.951 23.1777 310.009 22.3005C312.296 21.3261 312.217 22.2253 314.046 20.4065C312.33 20.6768 310.328 21.4197 309.279 19.9206L309.605 19.1764C315.196 16.9347 322.286 15.0353 328.104 13.3448C351.97 6.41036 380.597 1.0711 405.481 0.418052ZM182.16 56.5808C136.791 68.9548 91.9632 83.6106 49.139 103.198C44.0312 105.533 8.74756 121.587 7.14305 123.566L7.37678 124.024L9.26342 124.335C58.9932 126.944 114.888 101.951 156.469 76.5486C162.174 73.0646 178.677 61.7414 182.863 56.9448L182.711 56.5277L182.16 56.5808ZM291.598 35.9158C290.869 35.704 290.857 35.6201 290.147 35.827C275.428 37.0755 260.627 39.664 246.105 42.0799C240.953 42.9365 234.364 47.3159 230.5 50.6487C227.331 53.3843 201.45 69.5778 200.926 70.6451L202.153 70.3384C231.1 57.9317 255.663 50.9882 286.132 43.5564C287.233 42.0835 291.207 37.1669 291.598 35.9158ZM293.952 43.5306C292.12 43.8974 289.628 44.3186 287.873 44.7884C285.215 48.9484 279.167 58.1401 279.666 63.0594C280.316 63.8281 279.938 63.6892 280.707 63.7546C285.854 60.2256 293.058 49.9821 294.995 44.2666L294.851 43.4865L293.952 43.5306ZM298.175 34.7506C295.356 35.1448 290.283 40.0348 290.131 42.4249L290.657 42.478L296.486 41.2514C297.208 39.6267 298.465 37.0774 298.761 35.4147C298.424 34.8636 298.613 34.9313 298.175 34.7506ZM352.031 33.6095C347.049 32.5827 332.176 33.1118 326.585 33.3657C318.257 33.6458 309.932 34.035 301.613 34.5335L299.045 40.8093C306.331 39.2031 314.268 38.0514 321.686 36.9686C331.764 35.5415 341.884 34.4212 352.031 33.6095ZM303.083 19.2971C299.74 22.8809 292.352 34.336 287.34 30.4353C286.824 29.2061 286.802 28.5813 286.65 27.2904C285.135 27.0267 275.668 31.8563 274.522 28.5829C272.979 24.1752 270.75 23.9875 268.422 21.0429C266.807 22.7215 262.898 27.124 260.788 27.5836C257.965 26.4259 259.813 21.376 258.287 19.5842C254.871 22.629 251.797 26.3719 248.911 29.9221C249.13 35.584 247.496 36.8641 243.396 40.5926C256.462 38.2675 280.856 34.2923 294.204 33.6507L298.087 29.7337C299.34 28.7515 300.702 27.6362 301.987 26.7235C302.269 23.9347 302.544 22.0467 303.083 19.2971ZM295.634 23.3703C293.858 24.2054 290.227 25.6264 289.391 27.2273C289.421 28.5681 289.247 28.0456 290.147 29.184C292.215 27.8109 294.63 26.1159 295.906 23.9311L295.634 23.3703ZM321.016 20.7378C317.929 21.5974 314.913 22.838 313.956 26.374L314.263 26.9878C315.508 27.3174 316.355 26.9014 317.568 26.5023C319.472 25.3917 322.418 23.8529 323.885 22.3387L324.125 21.415C322.908 20.6099 322.636 20.8478 321.016 20.7378ZM301.796 10.6088C297.685 13.5379 293.867 17.9698 291.1 22.1878L291.045 22.8445L291.51 22.9921C297.554 20.1309 298.897 18.3026 302.567 12.5286C302.588 11.7219 302.708 11.0541 301.796 10.6088Z" fill="var(--fill-0, white)"/>
<path d="M387.15 30.1311C389.081 29.3889 391.248 30.3466 391.997 32.2727C392.745 34.1987 391.792 36.3676 389.87 37.1229C387.936 37.8814 385.756 36.9258 385.003 34.9903C384.251 33.0553 385.216 30.877 387.15 30.1311Z" fill="var(--fill-0, white)"/>
</g>
</svg>
