<svg preserveAspectRatio="none" width="100%" height="100%" overflow="visible" style="display: block;" viewBox="0 0 207 142" fill="none" xmlns="http://www.w3.org/2000/svg">
<path id="Vector" fill-rule="evenodd" clip-rule="evenodd" d="M39.6848 26.1984C39.6848 26.1984 33.9053 14.2339 48.2453 8.19238C62.5844 2.15087 39.1091 2.97006 21.5574 17.6652C4.00492 32.3594 -7.59477 62.7911 5.86328 89.2618C5.86328 89.2618 4.49026 56.3053 17.6127 51.5433C17.6127 51.5433 0.210009 91.8046 39.6848 116.74C39.6848 116.74 50.3552 123.209 62.5127 121.69C62.5127 121.69 53.2926 132.169 58.9035 142C58.9035 142 61.2651 128.926 71.828 124.762C71.828 124.762 66.972 131.06 69.981 137.732C69.981 137.732 74.9445 127.134 80.8918 124.762L83.913 119.897V123.225C83.913 123.225 87.7851 120.848 88.4448 117.508C89.1045 114.168 92.4292 111.716 93.1454 111.108C93.8606 110.5 94.1076 110.437 94.5712 107.609C95.0357 104.782 97.1287 104.463 98.2643 103.342L99.02 105.39C99.02 105.39 104.626 101.164 102.88 94.2962C101.134 87.4298 97.1287 87.0264 97.0892 87.0435C97.0496 87.0607 97.1014 94.6777 92.8928 90.2859L92.138 89.9442C92.138 89.9442 93.5204 92.9996 91.2983 93.87C89.0771 94.7404 84.2494 96.5154 84.2494 96.5154L87.4374 89.5181C87.4374 89.5181 88.0095 87.0264 91.2983 89.2618C91.2983 89.2618 89.8839 85.7745 91.2983 85.4214C92.7138 85.0692 95.0753 84.6535 95.0753 84.6535C95.0753 84.6535 95.5907 80.3698 88.949 78.8511C88.949 78.8511 83.5049 78.7487 80.5562 83.2031L80.8918 84.6535C80.8918 84.6535 80.7354 88.9884 74.3451 92.1634C74.3451 92.1634 69.9932 93.7391 67.8832 99.3315C65.7734 104.923 22.7853 94.4224 34.2294 59.3949C39.4116 43.5341 66.973 29.8071 80.5562 55.042C89.0734 70.8666 115.221 107.522 135.863 111.108C147.949 113.208 163.385 111.995 174.696 100.783C179.904 95.6185 183.514 90.8118 185.882 83.2031C188.135 75.9619 188.889 61.485 189.911 57.6873C190.449 55.6845 189.429 49.2794 196.037 57.6873C202.644 66.0961 202.242 77.7245 200.988 87.0435C199.735 96.3616 216.565 68.0647 198.806 34.3907C198.806 34.3907 183.555 8.38698 161.376 11.2648C161.376 11.2648 172.532 16.5224 171.866 26.1984C171.866 26.1984 158.825 16.8632 145.262 17.6652C145.262 17.6652 154.895 8.40115 151.808 0C151.808 0 148.209 9.76705 135.863 14.5927C135.863 14.5927 142.026 7.48244 138.968 0.683452C138.968 0.683452 135.653 8.96032 128.645 12.5444C128.645 12.5444 124.092 15.915 122.603 20.2251C122.603 20.2251 114.776 27.3506 113.875 27.7341C113.875 27.7341 111.461 29.9532 112.364 32.4277C112.364 32.4277 107.097 37.0787 105.901 37.036C105.901 37.036 96.8168 45.0576 108.922 52.8228C108.922 52.8228 108.692 44.7586 113.203 50.1784C113.203 50.1784 114.315 50.69 113.203 46.935C113.203 46.935 120.106 42.8821 123.274 43.2656L120.756 49.6658C120.756 49.6658 119.938 52.9937 116.896 50.5192C116.896 50.5192 119.476 56.2369 114.378 53.9324L113.203 52.8228C113.203 52.8228 113.182 64.4293 124.281 59.3949C124.281 59.3949 127.155 57.8155 127.302 56.3224C127.449 54.8294 126.652 50.4764 132.841 46.935C139.031 43.3936 138.653 42.0715 138.968 41.7297C139.283 41.388 161.447 35.1757 167.922 60.5035C174.035 84.4191 141.885 105.996 125.12 84.6535C105.907 60.1942 96.9214 41.8578 90.4596 34.3907C84.0317 26.9634 69.0585 11.563 39.6848 26.1984Z" fill="var(--fill-0, white)"/>
</svg>
