<svg preserveAspectRatio="none" width="100%" height="100%" overflow="visible" style="display: block;" viewBox="0 0 690.125 325.925" fill="none" xmlns="http://www.w3.org/2000/svg">
<g id="Group 751">
<path id="Vector" d="M690.125 0H0V325.925H690.125V0Z" fill="var(--fill-0, #383838)"/>
<path id="Vector_2" fill-rule="evenodd" clip-rule="evenodd" d="M233.292 85.1648C233.292 85.1648 223.169 64.3357 248.287 53.818C273.402 43.3003 232.284 44.7264 201.541 70.3093C170.797 95.8906 150.479 148.869 174.052 194.952C174.052 194.952 171.647 137.578 194.632 129.288C194.632 129.288 164.15 199.379 233.292 242.79C233.292 242.79 251.982 254.052 273.277 251.406C273.277 251.406 257.127 269.651 266.955 286.765C266.955 286.765 271.091 264.004 289.593 256.755C289.593 256.755 281.087 267.719 286.358 279.336C286.358 279.336 295.052 260.884 305.469 256.755L310.761 248.286V254.08C310.761 254.08 317.543 249.94 318.698 244.127C319.854 238.312 325.677 234.044 326.932 232.985C328.185 231.926 328.617 231.817 329.429 226.894C330.243 221.971 333.909 221.416 335.898 219.465L337.222 223.031C337.222 223.031 347.041 215.672 343.983 203.717C340.924 191.763 333.909 191.061 333.84 191.091C333.77 191.121 333.861 204.381 326.489 196.735L325.167 196.141C325.167 196.141 327.589 201.46 323.696 202.975C319.806 204.49 311.35 207.58 311.35 207.58L316.934 195.399C316.934 195.399 317.936 191.061 323.696 194.952C323.696 194.952 321.219 188.881 323.696 188.267C326.176 187.653 330.312 186.93 330.312 186.93C330.312 186.93 331.215 179.472 319.582 176.828C319.582 176.828 310.046 176.65 304.881 184.405L305.469 186.93C305.469 186.93 305.195 194.477 294.002 200.004C294.002 200.004 286.379 202.747 282.684 212.483C278.988 222.217 203.692 203.937 223.737 142.957C232.814 115.345 281.089 91.4472 304.881 135.379C319.799 162.928 365.599 226.742 401.754 232.985C422.923 236.64 449.961 234.528 469.773 215.01C478.896 206.019 485.218 197.651 489.365 184.405C493.312 171.799 494.633 146.596 496.422 139.984C497.364 136.497 495.579 125.347 507.153 139.984C518.725 154.623 518.022 174.867 515.825 191.091C513.63 207.313 543.109 158.05 512.004 99.4269C512.004 99.4269 485.29 54.1568 446.441 59.1669C446.441 59.1669 465.983 68.3198 464.816 85.1648C464.816 85.1648 441.973 68.913 418.217 70.3093C418.217 70.3093 435.09 54.1815 429.683 39.5558C429.683 39.5558 423.379 56.5594 401.754 64.9604C401.754 64.9604 412.549 52.5821 407.193 40.7456C407.193 40.7456 401.386 55.1549 389.112 61.3944C389.112 61.3944 381.136 67.2623 378.528 74.7659C378.528 74.7659 364.82 87.1707 363.24 87.8383C363.24 87.8383 359.013 91.7017 360.594 96.0095C360.594 96.0095 351.369 104.106 349.275 104.032C349.275 104.032 333.362 117.997 354.566 131.516C354.566 131.516 354.162 117.477 362.063 126.912C362.063 126.912 364.011 127.803 362.063 121.265C362.063 121.265 374.154 114.21 379.704 114.877L375.293 126.019C375.293 126.019 373.86 131.813 368.532 127.505C368.532 127.505 373.052 137.459 364.122 133.447L362.063 131.516C362.063 131.516 362.027 151.721 381.468 142.957C381.468 142.957 386.502 140.207 386.76 137.608C387.017 135.009 385.621 127.431 396.461 121.265C407.303 115.1 406.642 112.798 407.193 112.203C407.744 111.609 446.567 100.794 457.908 144.887C468.616 186.522 412.301 224.085 382.937 186.93C349.284 144.348 333.546 112.427 322.228 99.4269C310.969 86.4967 284.742 59.6859 233.292 85.1648Z" fill="var(--fill-0, #A11414)"/>
</g>
</svg>
