<svg preserveAspectRatio="none" width="100%" height="100%" overflow="visible" style="display: block;" viewBox="0 0 690.125 326.522" fill="none" xmlns="http://www.w3.org/2000/svg">
<g id="Group 752">
<path id="Vector" d="M690.125 0H0V326.522H690.125V0Z" fill="var(--fill-0, white)"/>
<path id="Vector_2" fill-rule="evenodd" clip-rule="evenodd" d="M233.292 86.0077C233.292 86.0077 223.169 65.2655 248.287 54.7916C273.402 44.3177 232.284 45.7379 201.541 71.2141C170.797 96.6889 150.479 149.447 174.052 195.338C174.052 195.338 171.647 138.203 194.632 129.947C194.632 129.947 164.15 199.746 233.292 242.976C233.292 242.976 251.982 254.191 273.277 251.556C273.277 251.556 257.127 269.725 266.955 286.768C266.955 286.768 271.091 264.102 289.593 256.883C289.593 256.883 281.087 267.801 286.358 279.369C286.358 279.369 295.052 260.995 305.469 256.883L310.761 248.45V254.219C310.761 254.219 317.543 250.097 318.698 244.308C319.854 238.517 325.677 234.267 326.932 233.212C328.185 232.157 328.617 232.049 329.429 227.146C330.243 222.244 333.909 221.691 335.898 219.748L337.222 223.299C337.222 223.299 347.041 215.972 343.983 204.066C340.924 192.162 333.909 191.463 333.84 191.492C333.77 191.522 333.861 204.727 326.489 197.113L325.167 196.521C325.167 196.521 327.589 201.818 323.696 203.327C319.806 204.836 311.35 207.913 311.35 207.913L316.934 195.782C316.934 195.782 317.936 191.463 323.696 195.338C323.696 195.338 321.219 189.292 323.696 188.68C326.176 188.069 330.312 187.349 330.312 187.349C330.312 187.349 331.215 179.922 319.582 177.289C319.582 177.289 310.046 177.112 304.881 184.834L305.469 187.349C305.469 187.349 305.195 194.864 294.002 200.368C294.002 200.368 286.379 203.1 282.684 212.795C278.988 222.489 203.692 204.285 223.737 143.559C232.814 116.062 281.089 92.264 304.881 136.013C319.799 163.447 365.599 226.995 401.754 233.212C422.923 236.852 449.96 234.749 469.773 215.312C478.896 206.358 485.218 198.025 489.366 184.834C493.312 172.281 494.633 147.183 496.422 140.599C497.364 137.127 495.579 126.022 507.153 140.599C518.725 155.177 518.022 175.336 515.825 191.492C513.63 207.647 543.109 158.589 512.004 100.21C512.004 100.21 485.29 55.1289 446.441 60.1181C446.441 60.1181 465.983 69.2329 464.816 86.0077C464.816 86.0077 441.973 69.8237 418.217 71.2141C418.217 71.2141 435.09 55.1535 429.683 40.5888C429.683 40.5888 423.379 57.5215 401.754 65.8876C401.754 65.8876 412.549 53.5608 407.193 41.7737C407.193 41.7737 401.386 56.1229 389.112 62.3364C389.112 62.3364 381.136 68.1798 378.528 75.6522C378.528 75.6522 364.82 88.0053 363.24 88.6701C363.24 88.6701 359.013 92.5174 360.594 96.8073C360.594 96.8073 351.369 104.871 349.275 104.797C349.275 104.797 333.362 118.703 354.566 132.165C354.566 132.165 354.162 118.185 362.063 127.581C362.063 127.581 364.011 128.468 362.063 121.958C362.063 121.958 374.154 114.932 379.704 115.596L375.293 126.692C375.293 126.692 373.86 132.462 368.532 128.172C368.532 128.172 373.052 138.084 364.122 134.089L362.063 132.165C362.063 132.165 362.027 152.287 381.468 143.559C381.468 143.559 386.502 140.821 386.76 138.232C387.017 135.644 385.621 128.097 396.461 121.958C407.303 115.818 406.642 113.526 407.193 112.934C407.744 112.341 446.567 101.571 457.908 145.481C468.616 186.942 412.301 224.349 382.937 187.349C349.284 144.945 333.546 113.156 322.228 100.21C310.969 87.3341 284.742 60.635 233.292 86.0077Z" fill="var(--fill-0, black)"/>
</g>
</svg>
