<svg preserveAspectRatio="none" width="100%" height="100%" overflow="visible" style="display: block;" viewBox="0 0 690.125 325.925" fill="none" xmlns="http://www.w3.org/2000/svg">
<g id="Group 750">
<g id="Vector">
<path d="M690.125 5.38136e-05H0V325.925H690.125V5.38136e-05Z" fill="var(--fill-0, black)"/>
<path d="M689.632 0.494194V325.431H0.494141V0.494194H689.632Z" stroke="var(--stroke-0, white)" stroke-opacity="0.5" stroke-width="0.987456"/>
</g>
<path id="Vector_2" fill-rule="evenodd" clip-rule="evenodd" d="M233.292 84.7518C233.292 84.7518 223.169 63.9228 248.287 53.405C273.402 42.8873 232.284 44.3135 201.541 69.8963C170.797 95.4777 150.479 148.456 174.052 194.539C174.052 194.539 171.647 137.165 194.632 128.875C194.632 128.875 164.15 198.966 233.292 242.377C233.292 242.377 251.982 253.639 273.277 250.993C273.277 250.993 257.127 269.238 266.955 286.352C266.955 286.352 271.091 263.591 289.593 256.342C289.593 256.342 281.087 267.306 286.358 278.923C286.358 278.923 295.052 260.471 305.469 256.342L310.761 247.873V253.667C310.761 253.667 317.543 249.527 318.698 243.714C319.854 237.899 325.677 233.631 326.932 232.572C328.185 231.513 328.617 231.404 329.429 226.481C330.243 221.558 333.909 221.003 335.898 219.052L337.222 222.618C337.222 222.618 347.041 215.259 343.983 203.304C340.924 191.35 333.909 190.648 333.84 190.678C333.77 190.708 333.861 203.968 326.489 196.322L325.167 195.728C325.167 195.728 327.589 201.047 323.696 202.562C319.806 204.077 311.35 207.167 311.35 207.167L316.934 194.986C316.934 194.986 317.936 190.648 323.696 194.539C323.696 194.539 321.219 188.468 323.696 187.854C326.176 187.241 330.312 186.517 330.312 186.517C330.312 186.517 331.215 179.059 319.582 176.415C319.582 176.415 310.046 176.237 304.881 183.992L305.469 186.517C305.469 186.517 305.195 194.064 294.002 199.591C294.002 199.591 286.379 202.334 282.684 212.07C278.988 221.805 203.692 203.524 223.737 142.544C232.814 114.932 281.089 91.0342 304.881 134.966C319.799 162.515 365.599 226.329 401.754 232.572C422.923 236.227 449.96 234.115 469.773 214.597C478.896 205.606 485.218 197.238 489.366 183.992C493.312 171.386 494.633 146.183 496.422 139.571C497.364 136.085 495.579 124.934 507.153 139.571C518.725 154.21 518.022 174.454 515.825 190.678C513.63 206.9 543.109 157.637 512.004 99.014C512.004 99.014 485.29 53.7438 446.441 58.7539C446.441 58.7539 465.983 67.9068 464.816 84.7518C464.816 84.7518 441.973 68.5001 418.217 69.8963C418.217 69.8963 435.09 53.7685 429.683 39.1428C429.683 39.1428 423.379 56.1464 401.754 64.5475C401.754 64.5475 412.549 52.1691 407.193 40.3327C407.193 40.3327 401.386 54.7419 389.112 60.9815C389.112 60.9815 381.136 66.8493 378.528 74.353C378.528 74.353 364.82 86.7578 363.24 87.4254C363.24 87.4254 359.013 91.2887 360.594 95.5966C360.594 95.5966 351.369 103.694 349.275 103.619C349.275 103.619 333.362 117.584 354.566 131.103C354.566 131.103 354.162 117.064 362.063 126.499C362.063 126.499 364.011 127.39 362.063 120.852C362.063 120.852 374.154 113.797 379.704 114.464L375.293 125.606C375.293 125.606 373.86 131.4 368.532 127.092C368.532 127.092 373.052 137.046 364.122 133.034L362.063 131.103C362.063 131.103 362.027 151.308 381.468 142.544C381.468 142.544 386.502 139.794 386.76 137.195C387.017 134.596 385.621 127.018 396.461 120.852C407.303 114.687 406.642 112.386 407.193 111.79C407.744 111.196 446.567 100.381 457.908 144.474C468.616 186.109 412.301 223.672 382.937 186.517C349.284 143.935 333.546 112.014 322.228 99.014C310.969 86.0837 284.742 59.2729 233.292 84.7518Z" fill="var(--fill-0, white)"/>
</g>
</svg>
