<svg preserveAspectRatio="none" width="100%" height="100%" overflow="visible" style="display: block;" viewBox="0 0 240.094 164.702" fill="none" xmlns="http://www.w3.org/2000/svg">
<path id="Vector" fill-rule="evenodd" clip-rule="evenodd" d="M46.0294 30.3868C46.0294 30.3868 39.3259 16.5095 55.9585 9.50214C72.59 2.49474 45.3616 3.4449 25.0039 20.4894C4.64521 37.5329 -8.80898 72.8298 6.80067 103.532C6.80067 103.532 5.20814 65.307 20.4285 59.7838C20.4285 59.7838 0.243584 106.482 46.0294 135.404C46.0294 135.404 58.4057 142.907 72.5069 141.145C72.5069 141.145 61.8127 153.3 68.3207 164.702C68.3207 164.702 71.0598 149.538 83.3115 144.708C83.3115 144.708 77.6791 152.013 81.1692 159.752C81.1692 159.752 86.9262 147.459 93.8243 144.708L97.3286 139.066V142.926C97.3286 142.926 101.82 140.168 102.585 136.295C103.35 132.421 107.206 129.577 108.037 128.871C108.867 128.166 109.153 128.093 109.691 124.813C110.23 121.534 112.657 121.164 113.974 119.864L114.851 122.239C114.851 122.239 121.353 117.337 119.328 109.372C117.303 101.408 112.657 100.94 112.611 100.96C112.565 100.979 112.625 109.814 107.744 104.72L106.869 104.324C106.869 104.324 108.472 107.868 105.895 108.877C103.318 109.887 97.7187 111.946 97.7187 111.946L101.416 103.83C101.416 103.83 102.08 100.94 105.895 103.532C105.895 103.532 104.254 99.4877 105.895 99.0781C107.536 98.6696 110.275 98.1874 110.275 98.1874C110.275 98.1874 110.873 93.2189 103.17 91.4574C103.17 91.4574 96.8552 91.3386 93.4352 96.5051L93.8243 98.1874C93.8243 98.1874 93.6429 103.215 86.231 106.898C86.231 106.898 81.1834 108.726 78.736 115.212C76.2889 121.698 26.4281 109.518 39.7019 68.8906C45.7125 50.494 77.6802 34.5724 93.4352 63.8418C103.314 82.1964 133.642 124.712 157.584 128.871C171.602 131.307 189.506 129.9 202.626 116.896C208.667 110.905 212.853 105.33 215.6 96.5051C218.213 88.1063 219.088 71.3149 220.272 66.9101C220.897 64.5871 219.714 57.158 227.378 66.9101C235.041 76.6632 234.576 90.1506 233.121 100.96C231.667 111.767 251.189 78.9465 230.591 39.8889C230.591 39.8889 212.901 9.72784 187.176 13.0658C187.176 13.0658 200.116 19.1639 199.343 30.3868C199.343 30.3868 184.217 19.5592 168.486 20.4894C168.486 20.4894 179.659 9.74429 176.078 0C176.078 0 171.904 11.3286 157.584 16.9257C157.584 16.9257 164.732 8.6787 161.185 0.792718C161.185 0.792718 157.34 10.3928 149.212 14.5499C149.212 14.5499 143.931 18.4593 142.204 23.4586C142.204 23.4586 133.126 31.7233 132.08 32.1681C132.08 32.1681 129.281 34.742 130.328 37.6121C130.328 37.6121 124.219 43.0067 122.832 42.9572C122.832 42.9572 112.295 52.2612 126.336 61.2679C126.336 61.2679 126.069 51.9144 131.301 58.2007C131.301 58.2007 132.591 58.7941 131.301 54.4387C131.301 54.4387 139.307 49.7379 142.982 50.1826L140.062 57.6061C140.062 57.6061 139.113 61.466 135.584 58.5959C135.584 58.5959 138.577 65.2278 132.664 62.5549L131.301 61.2679C131.301 61.2679 131.277 74.7299 144.151 68.8906C144.151 68.8906 147.484 67.0587 147.655 65.327C147.825 63.5952 146.901 58.5463 154.079 54.4387C161.259 50.3311 160.82 48.7977 161.185 48.4012C161.55 48.0049 187.259 40.7994 194.769 70.1764C201.859 97.9155 164.568 122.942 145.123 98.1874C122.839 69.8177 112.417 48.5499 104.922 39.8889C97.4663 31.2742 80.0992 13.4116 46.0294 30.3868Z" fill="var(--fill-0, #070504)"/>
</svg>
